<svg xmlns="http://www.w3.org/2000/svg" viewBox="0 0 325 126"><g fill="none" fill-rule="evenodd"><path fill="#06BCE3" fill-rule="nonzero" d="M64.478 76.038c-16.897 0-28.165-12.516-28.165-29.413 0-16.896 13.697-30.594 30.593-30.594 16.897 0 30.594 13.698 30.594 30.594a2.562 2.562 0 005.125 0 35.75 35.75 0 10-35.719 35.719l.5 4.906c-22.643 0-41-18.356-41-41s18.357-41 41-41a2.562 2.562 0 100-5.125c-25.474 0-46.125 20.65-46.125 46.125 0 25.474 19.072 45.219 44.546 45.219-.364 1.148-.645 1.946-.844 2.395-.34.767-.34 2.094 0 3.98-19.891.009-35.576-11.341-44.062-29.33a51.375 51.375 0 016.829-54.608 2.563 2.563 0 00-3.969-3.125 56.531 56.531 0 00-7.374 59.96c9.323 19.735 27.594 32.337 49.42 32.381l1.08 5.253C32.8 108.341 5.158 80.7 5.124 46.594a2.562 2.562 0 10-5.125 0C.034 83.53 29.97 113.466 66.906 113.5l.5 5.25A72.344 72.344 0 018.531 88.344a2.613 2.613 0 00-4.187 3.125c14.547 20.364 41.242 33.425 66.269 33.416-4.035-11.03-6.08-19.122-6.135-24.277-.056-5.22-.056-13.41 0-24.57z"/><path fill="#06066E" d="M104.9 98.7c0 14.9-10.9 26.9-26.4 26.9-15.6 0-26.5-12-26.5-26.9V50h13.3v27.8c3.9-4.1 9-6 15-6 13.6 0 24.6 12.1 24.6 26.9zm-13.2.1c0-8.5-5.9-14.8-13.2-14.8-7.3 0-13.2 6.6-13.2 14.8 0 8 5.9 14.5 13.2 14.5 7.3 0 13.2-6.3 13.2-14.5zm72.1-.1v25.7h-12.5V119c-3.9 4.3-9.5 6.5-15.7 6.5-13.6 0-24.7-12-24.7-26.8 0-14.9 10.9-27.1 26.5-27.1 15.5 0 26.4 12.2 26.4 27.1zm-13.2.1c0-8.2-5.9-14.8-13.2-14.8-7.3 0-13.2 6.3-13.2 14.8 0 8.2 5.9 14.5 13.2 14.5 7.3 0 13.2-6.5 13.2-14.5zm51.6-26.9v12.4c-8.4-1.5-14 3-14 10.3v29.8H175V94.6c0-14.6 10.1-24.8 27.2-22.7zm34.4 0v12.4c-8.4-1.5-14 3-14 10.3v29.8h-13.2V94.6c0-14.6 10.1-24.8 27.2-22.7zm41.8 36.1h14.1c-3 10.5-12.1 17.6-24.9 17.6-14.6 0-26.4-12-26.4-26.9 0-14.9 11.8-27.1 26.4-27.1 12.4 0 22.8 7.8 25.3 21.6l-36.4 15.3c2.6 3.5 6.5 5.5 11 5.5 4.3 0 8.7-1.9 10.9-6zm-24.9-10l24.2-10.2c-2.4-2.9-6-4.6-10.2-4.6-7.6 0-13.7 6-14 14.8zm47.8 4.8V50h13.3v52.8c0 7.3 3.3 9.9 9.8 9.5v12c-15.1 1.6-23.1-7.4-23.1-21.5z"/></g></svg>