<svg viewBox="0 0 148 161" xmlns="http://www.w3.org/2000/svg"><defs><linearGradient x1="-12.69%" y1="98.571%" x2="-.379%" y2="-2.476%" id="a"><stop stop-color="#37CEDB" offset="0%"/><stop stop-color="#3488ED" offset="100%"/></linearGradient></defs><path d="M148.358 86.943c.045-.11.07-.228.106-.344.037-.11.08-.218.101-.336.048-.226.07-.46.07-.696 0-.005.003-.01.003-.02v-.003c0-39.374-31.067-71.625-69.982-73.54V6.17a3.657 3.657 0 1 0-7.316 0v5.834C32.431 13.917 1.363 46.17 1.363 85.544v.004c0 .01.002.02.004.03.002.23.025.462.066.685.025.12.068.232.105.345.034.112.06.226.105.335.06.141.136.27.211.404.043.074.075.155.121.226.27.407.62.751 1.023 1.02.062.044.136.074.202.112.139.082.274.164.426.224.093.041.19.06.284.091.132.041.26.09.401.116.154.03.307.036.46.047.085.005.165.025.25.025.093 0 .179-.02.266-.029.149-.01.297-.016.443-.043.143-.028.278-.078.414-.121.091-.032.182-.048.268-.086.155-.064.296-.146.437-.228.064-.038.13-.064.194-.109.204-.132.396-.287.566-.464 11.414-11.408 25.042-11.404 36.453.005.038.038.08.065.122.102.135.125.275.25.428.352.118.08.245.135.37.2.09.042.169.098.26.135.155.064.318.106.476.148.072.018.136.047.21.061a3.8 3.8 0 0 0 .72.075c.245 0 .484-.029.723-.075.073-.014.139-.043.21-.062.16-.041.318-.083.472-.147.094-.037.178-.094.267-.14.12-.061.246-.115.362-.195.14-.095.265-.207.391-.321.052-.049.113-.084.16-.133h.004c5.07-5.071 13.39-7.914 22.103-8.535v69.63a6.24 6.24 0 0 1-6.235 6.232 6.24 6.24 0 0 1-6.231-6.231 3.658 3.658 0 1 0-7.319 0c0 7.473 6.078 13.55 13.55 13.55 6.75 0 12.345-4.965 13.368-11.434.112-.342.185-.705.185-1.081V79.598c8.71.621 17.022 3.46 22.094 8.527.171.174.362.328.567.465.084.057.182.102.275.15.114.064.227.132.352.184.132.057.27.091.41.128.091.025.175.061.268.08.237.047.482.076.72.076.24 0 .484-.029.722-.075.051-.01.101-.034.153-.043.179-.045.359-.095.534-.17.059-.025.112-.062.175-.09.153-.076.306-.147.456-.249.045-.032.084-.073.132-.108.143-.108.286-.211.414-.34 11.414-11.41 25.039-11.413 36.454-.003.171.175.362.33.567.462.066.048.143.079.216.12.136.078.268.155.409.216.102.04.205.062.303.096.129.037.252.087.384.112.178.036.355.043.533.052.06.005.118.02.179.02.062 0 .121-.015.182-.02a3.76 3.76 0 0 0 .53-.052c.132-.025.255-.073.384-.112.098-.034.205-.054.303-.096.143-.061.275-.138.405-.213.073-.04.154-.075.227-.123.401-.268.75-.614 1.017-1.019.052-.075.084-.159.132-.239.071-.13.148-.255.203-.39zM99.533 78.16c-6.619-3.781-15.28-5.937-24.533-5.937h-.002c-9.254 0-17.914 2.156-24.535 5.94 1.558-37.929 14.965-58.818 24.455-58.934l.08-.002.079.002c9.486.11 22.895 21.004 24.456 58.931zm-90.341-.703c3.367-27.531 23.657-49.894 50.128-56.34-2.529 3.164-4.87 7.076-6.93 11.689-5.296 11.87-8.513 27.672-9.238 45.102-10.794-7.314-23.103-7.471-33.96-.451zm97.654.451c-.725-17.43-3.942-33.232-9.24-45.102-2.06-4.612-4.402-8.523-6.93-11.689 26.475 6.442 46.767 28.809 50.134 56.34-10.857-7.02-23.17-6.863-33.964.451z" transform="translate(-1 -2)" fill="url(#a)" fill-opacity=".2"/></svg>