<svg viewBox="0 0 100 93" xmlns="http://www.w3.org/2000/svg"><linearGradient id="a" x1="100%" x2="18.903%" y1="-2.476%" y2="100%"><stop offset="0" stop-color="#ff90d7"/><stop offset="1" stop-color="#906efa"/></linearGradient><path d="M99.998 61.93a.75.75 0 0 0-.334-.617l-24.373-16.32c.026-6.853.068-18.328.068-21.305 0-4.478-4.709-9.575-14.397-15.58C50.406.963 46.979 0 45.019 0h-5.457a.774.774 0 0 0-.162.018.784.784 0 0 0-.167.06c-.006.003-.013.003-.02.008-.008.003-.015.01-.022.015a.781.781 0 0 0-.126.09c-.008.007-.018.013-.024.021a.788.788 0 0 0-.113.14l-.022.037a.697.697 0 0 0-.056.132l-.015.047a.725.725 0 0 0-.025.184v17.293a14.758 14.758 0 0 0-9.041-3.083v1.501c7.333 0 13.302 5.95 13.337 13.274-.036 4.368-3.599 7.91-7.974 7.91a4.145 4.145 0 0 0-4.141 4.14v7.499a3.616 3.616 0 0 1-3.612 3.612c-6.04 0-10.951-4.912-10.951-10.95V29.804c0-7.356 5.984-13.341 13.34-13.341v-1.501c-8.184 0-14.843 6.658-14.843 14.842v5.518l-7.874 5.851C2.961 42.531 0 46.393 0 50.935V61.7c0 3.887 2.043 8.747 4.373 10.401a171.413 171.413 0 0 0 4.155 2.86l.003.002 25.562 16.494-.004.007.126.07.067.044.002-.003a10.437 10.437 0 0 0 5.27 1.428c2.296 0 4.534-.762 6.351-2.15.637.154 1.3.238 1.983.238 1.615 0 3.18-.46 4.531-1.332.01-.006.017-.014.026-.021l.002.002 10.215-7.09 4.502 2.664v.666h.037v-.643l1.442.853.002-.003c.01.006.02.016.033.023a.75.75 0 0 0 .776-.049l30.224-21.044A.749.749 0 0 0 100 64.5v-2.565h-.001c-.002-.002-.001-.004-.001-.006zm-2.082.019L69.179 81.994l-2.99-1.792.765-.531c1.589-1.062 2.625-3.008 2.793-5.176.674-.434 2.301-1.481 3.624-2.364 2.184-1.455 3.2-3.165 3.2-5.38 0-1.36-.774-2.781-2.236-3.428.54-2.224 3.59-3.943 4.23-4.281 1.835-.972 2.667-2.681 2.12-4.358a3.5 3.5 0 0 0-4.407-2.24l.004.018a2.733 2.733 0 0 1-2.88-.504l1.553-1.104a.746.746 0 0 0 .315-.61l.014-3.448zM75.07 66.752c0 1.69-.78 2.965-2.532 4.132-.948.632-2.055 1.35-2.851 1.865a7.393 7.393 0 0 0-3.786-5.36 125.83 125.83 0 0 0 2.654-1.82c1.438-1.018 2.71-1.101 3.998-1.101.7-.001 2.517.41 2.517 2.284zM45.02 1.502c2.423 0 7.084 2.423 15.113 7.858a.511.511 0 0 0 .025.017c8.963 5.554 13.7 10.503 13.7 14.312 0 3.982-.075 23.192-.087 26.166l-2.274 1.616-.183.076c.005.014.013.027.02.04l-.855.607v-30.61a.75.75 0 0 0-.324-.617L41.97 1.5zm-1.942 4.54a.75.75 0 0 0-1.177.618v14.608a15.01 15.01 0 0 0-1.588-1.9V2.182L68.978 21.98v30.23L43.391 34.314c.282-.5.52-1.027.709-1.578l21.514 14.724a.75.75 0 0 0 1.174-.619v-24.03a.751.751 0 0 0-.324-.618zm1.532 23.695v-.067h-.003a14.761 14.761 0 0 0-1.204-5.728V8.092l21.884 15.115v22.21L44.49 31.185c.072-.451.112-.911.117-1.381h.004l-.001-.066zm-2.583 6.427c.184-.193.357-.394.524-.602l26.746 18.703c.024.018.051.032.078.047.006.002.012.007.018.01.046.023.094.04.144.052l.036.009a.725.725 0 0 0 .154.019.785.785 0 0 0 .159-.02l.032-.007a.769.769 0 0 0 .15-.057c.001 0 .003 0 .005-.002l.01-.007c.025-.014.052-.027.077-.046l1.996-1.418a4.25 4.25 0 0 0 3.082 1.328 4.26 4.26 0 0 0 1.633-.328v-.003a1.995 1.995 0 0 1 2.384 1.31c.47 1.446-.95 2.329-1.396 2.565-1.045.555-4.313 2.484-4.989 5.265-.105-.007-.21-.016-.322-.016-1.412 0-3.069.107-4.864 1.378-1.611 1.14-3.347 2.28-3.364 2.292l.102.153a7.326 7.326 0 0 0-2.024-.285 7.333 7.333 0 0 0-4.253 1.35l-6.001 4.4a18.468 18.468 0 0 0-2.6-7.224.947.947 0 0 0-.038-.055c-.757-1.008-2.294-2.653-4.074-4.556-1.496-1.598-3.482-3.725-5.124-5.66L55.62 66a.753.753 0 0 0 .864.017l9.462-6.377a.751.751 0 0 0 .012-1.238l-23.93-16.884zm-1.162 10.303l18.952 13.297a.754.754 0 0 0 1.046-.183.75.75 0 0 0-.184-1.046L41.471 45.057c.197-.574.346-1.17.44-1.785L64.207 59l-8.121 5.473-18.643-13.685a2.431 2.431 0 0 1-.147-.413 10.29 10.29 0 0 0 1.147-.857l18.239 12.797a.754.754 0 0 0 1.047-.183.75.75 0 0 0-.184-1.046L39.523 48.44c.52-.6.971-1.263 1.342-1.973zm-8.37 2.818v-7.498a2.642 2.642 0 0 1 2.64-2.64c2 0 3.859-.625 5.391-1.69v4.268c0 4.64-3.616 8.449-8.179 8.76.093-.386.148-.787.148-1.2zM14.928 37.193v3.458h-4.655zm36.68 51.301l-.005.003a6.84 6.84 0 0 1-3.717 1.092 6.87 6.87 0 0 1-6.863-6.864v-7.238a.75.75 0 1 0-1.501 0v7.238c0 3.276 1.893 6.116 4.642 7.488a8.98 8.98 0 0 1-4.611 1.286 8.943 8.943 0 0 1-4.549-1.242L9.35 73.704a178.258 178.258 0 0 1-4.106-2.827c-1.73-1.228-3.74-5.505-3.74-9.177V50.934c0-4.843 3.938-8.782 8.78-8.782h4.651c.112 6.773 5.651 12.247 12.448 12.247a5.111 5.111 0 0 0 4.363-2.46v.07a10.23 10.23 0 0 0 4.226-.913c.83 2.17 4.057 5.736 8.367 10.345 1.736 1.854 3.236 3.459 3.951 4.405a17.02 17.02 0 0 1 2.533 8.947v.037a.747.747 0 0 0 .035.182 2.851 2.851 0 0 0 2.814 2.422.75.75 0 1 0 0-1.502 1.35 1.35 0 0 1-1.347-1.347v-.122h-.003c-.003-.157-.01-.313-.016-.468l6.72-4.925a5.83 5.83 0 0 1 3.377-1.068 5.877 5.877 0 0 1 5.87 5.87c0 1.89-.845 3.675-2.164 4.556zm13.227-7.353l3.436 2.06v1.027l-4.255-2.518zm4.939 2.965v-.695l28.723-20.035v.733z" fill="url(#a)" opacity=".2"/></svg>