<svg xmlns="http://www.w3.org/2000/svg" fill-rule="evenodd" stroke-linejoin="round" stroke-miterlimit="1.414" clip-rule="evenodd" viewBox="0 0 118 121"><g fill-rule="nonzero"><path fill="url(#_Linear1)" d="M1199.18 439.973h-.24l-36.04-3.16a.756.756 0 01-.69-.75v-.066a.78.78 0 01.82-.685l36.03 3.153h.14c4.16 0 11.04-9.966 17.13-18.773l2.36-3.403a3.827 3.827 0 00-.5-5.106 2.4 2.4 0 00-3.35-.048 232.885 232.885 0 00-4.04 4.036c-5.09 5.186-9.5 9.67-13.24 9.67h-.12l-18.46-1.612a.758.758 0 01-.69-.75.76.76 0 01.57-.73l19.89-4.865c1.5-.452 1.85-2.582 1.39-4.366-.41-1.603-1.52-3.074-3.04-2.73-1.53.403-3.07.813-4.6 1.23-9.06 2.449-14.69 3.85-16.49 2.805a22.187 22.187 0 00-22.48-.582.713.713 0 01-.36.096c-.42 0-.76-.34-.76-.753 0-.293.17-.56.44-.683a23.604 23.604 0 0123.92.623c1.39.809 9.12-1.28 15.33-2.957 1.57-.423 3.14-.847 4.65-1.24 2.54-.554 4.26 1.516 4.85 3.82.65 2.525.01 5.464-2.46 6.19l-15.49 3.79 13.88 1.214c3.1.045 7.51-4.44 12.21-9.22 1.33-1.354 2.7-2.751 4.08-4.085 1.51-1.419 3.89-1.409 5.38.022a5.33 5.33 0 01.73 7.094c-.79 1.131-1.57 2.264-2.35 3.4-6.91 9.983-13.43 19.421-18.4 19.421zm31.68-53.781h-9.89a.755.755 0 01-.73-.752c0-.403.32-.738.73-.753h9.14c-.37-25.014-19.2-45.89-44.04-48.83a.759.759 0 01-.67-.748c0-.033 0-.067.01-.1.04-.238.07-.478.07-.72 0-2.917-2.4-5.317-5.31-5.317-2.92 0-5.32 2.4-5.32 5.317.01.198.02.396.06.591a.923.923 0 01-.14.627.848.848 0 01-.5.35c-24.84 2.945-43.67 23.82-44.04 48.83h61.49c.4.015.73.35.73.753 0 .402-.33.737-.73.752h-62.24a.759.759 0 01-.76-.752c-.01-25.781 19.08-47.583 44.64-50.984v-.167c.04-3.712 3.11-6.74 6.82-6.74 3.71 0 6.77 3.028 6.82 6.74v.165c25.55 3.411 44.62 25.21 44.62 50.986 0 .413-.34.752-.76.752z" transform="matrix(-1 0 0 1 1239.89 -327)"/><path fill="url(#_Linear2)" d="M1205.4 394.326a.757.757 0 01-.75-.753c0-.198.08-.388.22-.529 2.86-2.901 2.84-6.173-.08-10.308-2.09-2.966-2.09-5.32-.01-8.396a.759.759 0 01.64-.352.756.756 0 01.61 1.195c-1.73 2.56-1.73 4.24 0 6.686 3.31 4.698 3.29 8.814-.08 12.233a.77.77 0 01-.55.224zm-7.25 0c-.42 0-.76-.34-.76-.753 0-.198.08-.388.22-.529 2.86-2.901 2.84-6.173-.08-10.308-2.08-2.966-2.08-5.32-.01-8.396a.759.759 0 01.64-.352.756.756 0 01.61 1.195c-1.72 2.56-1.72 4.24 0 6.686 3.31 4.7 3.29 8.816-.08 12.233a.747.747 0 01-.54.224zm14.51 0a.756.756 0 01-.54-1.282c2.87-2.901 2.84-6.173-.07-10.308-2.09-2.966-2.09-5.32-.01-8.396a.73.73 0 01.63-.352c.42 0 .76.34.76.753 0 .159-.05.314-.15.442-1.72 2.56-1.72 4.24 0 6.686 3.32 4.698 3.3 8.814-.08 12.233a.747.747 0 01-.54.224z" transform="matrix(-1 0 0 1 1239.89 -327)"/><path fill="url(#_Linear3)" d="M1238.85 401.783h-115.81c-.42 0-.76-.34-.76-.753v-8.047c0-.415.34-.752.76-.752h68.75a.754.754 0 010 1.505h-68v6.541h114.31v-6.54h-17.52c-.41 0-.75-.34-.75-.753s.34-.753.75-.753h18.27c.42 0 .75.337.75.752v8.047c0 .413-.34.753-.75.753zm-87.42 46.053a2.909 2.909 0 01-1.14-.236 2.91 2.91 0 01-1.56-1.591l-12.45-30.965a2.937 2.937 0 011.62-3.789l6.98-2.808c1.49-.594 3.2.135 3.79 1.616l12.45 30.964c.59 1.483-.13 3.193-1.61 3.79l-6.99 2.807c-.35.14-.71.212-1.09.212zm-5.46-38.088c-.18.001-.36.036-.52.103l-6.99 2.807a1.424 1.424 0 00-.78 1.828l12.45 30.961c.14.346.41.622.75.768.34.149.73.153 1.07.012l6.99-2.808a1.408 1.408 0 00.78-1.83l-12.44-30.965a1.419 1.419 0 00-1.31-.882v.006z" transform="matrix(-1 0 0 1 1239.89 -327)"/></g><defs><linearGradient id="_Linear1" x1="0" x2="1" y1="0" y2="0" gradientTransform="rotate(-86.827 808.526 -356.917) scale(145.68034)" gradientUnits="userSpaceOnUse"><stop offset="0" stop-color="#ff90d7" stop-opacity=".2"/><stop offset="1" stop-color="#906efa" stop-opacity=".2"/></linearGradient><linearGradient id="_Linear2" x1="0" x2="1" y1="0" y2="0" gradientTransform="rotate(-86.628 809.193 -433.49) scale(26.35903)" gradientUnits="userSpaceOnUse"><stop offset="0" stop-color="#ff90d7" stop-opacity=".2"/><stop offset="1" stop-color="#906efa" stop-opacity=".2"/></linearGradient><linearGradient id="_Linear3" x1="0" x2="1" y1="0" y2="0" gradientTransform="rotate(-82.717 819.204 -400.572) scale(72.52804)" gradientUnits="userSpaceOnUse"><stop offset="0" stop-color="#ff90d7" stop-opacity=".2"/><stop offset="1" stop-color="#906efa" stop-opacity=".2"/></linearGradient></defs></svg>