<svg viewBox="0 0 92 105" xmlns="http://www.w3.org/2000/svg"><linearGradient id="a" x1="14.507%" y1="0%" y2="79.106%"><stop offset="0" stop-color="#f4d03f"/><stop offset="1" stop-color="#16a085"/></linearGradient><path d="M60.538 94.066h-20.7c-1.294 0-2.157.862-2.157 2.156s.863 2.156 2.157 2.156h20.7c1.293 0 2.156-.862 2.156-2.156s-.863-2.156-2.156-2.156zm-10.35-73.744c-1.079 0-1.941 0-3.02.215-11.427 1.294-21.13 10.566-22.855 21.994-1.079 7.332.646 14.663 5.39 20.485 4.96 6.253 7.547 13.153 7.547 20.484 0 1.294.863 2.156 2.156 2.156H61.4c1.294 0 2.156-.862 2.156-2.156 0-7.547 2.372-14.447 6.9-19.622 4.097-4.744 6.253-10.781 6.253-17.034-.215-14.663-12.075-26.522-26.522-26.522zm1.293 60.806h-2.803l-1.294-21.131a22.61 22.61 0 0 0 5.391 0zm15.31-20.269c-4.744 5.391-7.332 12.507-7.763 20.27h-3.234l1.294-21.779c5.39-1.078 9.918-3.45 9.918-7.763 0-3.88-3.018-6.9-6.9-6.9s-6.9 3.02-6.9 6.685l-.215 4.097a28.342 28.342 0 0 1-6.038 0l-.215-3.882c0-3.88-3.02-6.9-6.9-6.9s-6.9 3.02-6.9 6.9c0 1.941 1.078 4.744 6.037 6.685 1.078.431 2.588.862 3.881 1.078l1.294 21.778h-3.234c-.432-7.331-3.235-14.447-8.41-20.916-3.881-4.743-5.39-10.996-4.528-17.034 1.51-9.487 9.488-17.25 19.19-18.328.863 0 1.726-.216 2.588-.216 12.075 0 21.994 9.92 21.994 21.994.431 5.175-1.51 10.35-4.96 14.231zm-9.272-5.822l.215-3.234c0-1.51 1.079-2.587 2.588-2.587s2.587 1.078 2.587 2.587c0 1.078-1.94 2.372-5.39 3.235zm-14.663 0c-3.45-.862-5.39-2.156-5.39-3.234 0-1.51 1.078-2.587 2.587-2.587s2.588 1.078 2.588 2.803zm50.888-9.918h-11.86c-1.293 0-2.156.862-2.156 2.156s.863 2.156 2.156 2.156h11.86c1.294 0 2.156-.862 2.156-2.156s-1.078-2.156-2.156-2.156zm-73.097 2.156c0-1.294-.863-2.156-2.156-2.156H6.63c-1.293 0-2.156.862-2.156 2.156s.863 2.156 2.156 2.156h11.86c1.293 0 2.156-1.078 2.156-2.156zm29.541-30.188c1.293 0 2.156-.862 2.156-2.156V3.72c0-1.294-.863-2.157-2.157-2.157s-2.156.863-2.156 2.157v11.21c0 1.294.863 2.156 2.157 2.156zm32.343-2.156c-.862-.862-2.156-.862-3.019 0l-8.193 8.194c-.863.863-.863 2.156 0 3.019 1.078.862 2.156.862 3.019 0l8.193-8.194c.863-.862.863-2.156 0-3.019zM29.272 68.19c-.863-.862-2.156-.862-3.019 0l-8.41 8.41c-.862.863-.862 2.156 0 3.019 1.079.862 2.157.862 3.02 0l8.409-8.41c.862-.862.862-2.156 0-3.018zm53.259 8.41l-8.41-8.41c-.862-.862-2.155-.862-3.018 0s-.862 2.157 0 3.02l8.41 8.409c1.078.862 2.156.862 3.018 0s.863-2.157 0-3.019zM29.056 22.91l-7.978-7.979c-.862-.862-2.156-.862-3.019 0s-.862 2.157 0 3.019l7.978 7.978c1.079.863 2.157.863 3.02 0 .862-.647.862-2.156 0-3.019zm31.482 64.471h-20.7c-1.294 0-2.157.863-2.157 2.156s.863 2.157 2.157 2.157h20.7c1.293 0 2.156-.863 2.156-2.157s-.863-2.156-2.156-2.156zm-5.391 13.369H46.09c-1.294 0-2.157.863-2.157 2.156s.863 2.156 2.157 2.156h9.056c1.294 0 2.156-.862 2.156-2.156s-1.078-2.156-2.156-2.156z" fill="url(#a)" fill-opacity=".2" fill-rule="evenodd" transform="translate(-4 -1)"/></svg>