<svg viewBox="0 0 71 59" xmlns="http://www.w3.org/2000/svg"><path d="M47.873 52.392a.542.542 0 0 1-.132.753 26.858 26.858 0 0 1-15.508 4.889 26.986 26.986 0 0 1-13.885-3.837.54.54 0 0 1 .556-.925 25.891 25.891 0 0 0 13.33 3.68c5.366 0 10.512-1.62 14.887-4.69a.54.54 0 0 1 .752.13zM27.22 43.569a.54.54 0 0 0-.54.54V45.9a.539.539 0 1 0 1.08 0v-1.79a.54.54 0 0 0-.54-.541zm1.958 0a.54.54 0 0 0-.54.54V45.9a.538.538 0 1 0 1.079 0v-1.79a.54.54 0 0 0-.54-.541zm1.957 0a.54.54 0 0 0-.54.54V45.9a.538.538 0 1 0 1.079 0v-1.79a.54.54 0 0 0-.54-.541zm1.956 0a.54.54 0 0 0-.54.54V45.9a.539.539 0 1 0 1.079 0v-1.79c0-.3-.24-.541-.54-.541zm1.957 0a.54.54 0 0 0-.54.54V45.9a.538.538 0 1 0 1.079 0v-1.79a.54.54 0 0 0-.539-.541zm1.957 0a.54.54 0 0 0-.541.54V45.9a.54.54 0 0 0 1.08 0v-1.79a.54.54 0 0 0-.54-.541zm-9.785-35.58a.54.54 0 0 0 .54-.54V5.66a.54.54 0 0 0-1.08 0v1.79c0 .299.242.54.54.54zm1.958 0c.298 0 .539-.24.539-.54V5.66a.539.539 0 1 0-1.078 0v1.79c0 .299.24.54.539.54zm1.957 0c.297 0 .539-.24.539-.54V5.66a.54.54 0 1 0-1.079 0v1.79c0 .299.24.54.54.54zm1.956 0c.299 0 .539-.24.539-.54V5.66a.538.538 0 1 0-1.079 0v1.79c0 .299.243.54.54.54zm1.957 0c.298 0 .539-.24.539-.54V5.66a.539.539 0 1 0-1.079 0v1.79c0 .299.242.54.54.54zm1.957 0c.298 0 .538-.24.538-.54V5.66a.539.539 0 1 0-1.079 0v1.79c0 .299.243.54.54.54zm.221 9.13c-.984 0-1.943.307-2.801.895-.856-.588-1.817-.894-2.8-.894a.539.539 0 1 0 0 1.078c.867 0 1.72.312 2.465.907a.541.541 0 0 0 .672 0c.744-.594 1.596-.907 2.464-.907a.54.54 0 0 0 0-1.078zm-5.602-3.346c.599-.487 1.287-.748 1.99-.756a.538.538 0 1 0-.011-1.078 4.198 4.198 0 0 0-2.326.75 4.184 4.184 0 0 0-2.342-.704.54.54 0 0 0 .012 1.08c.702-.008 1.394.239 2.005.715a.539.539 0 0 0 .672-.007zm14.531-4.675c7.532 4.796 12.03 12.985 12.03 21.904 0 3.716-.768 7.3-2.284 10.66a.545.545 0 0 0 .271.716.536.536 0 0 0 .713-.27c1.58-3.5 2.38-7.236 2.38-11.105 0-9.289-4.683-17.818-12.532-22.814a.54.54 0 0 0-.577.91zM7.941 42.118a.54.54 0 0 0 .493-.757A25.776 25.776 0 0 1 6.282 31 26.018 26.018 0 0 1 17.256 9.805c.424-.3.863-.591 1.302-.864a.54.54 0 0 0-.569-.916A27.09 27.09 0 0 0 5.203 31c0 3.752.754 7.383 2.242 10.794a.538.538 0 0 0 .496.324zm48.215-16.596a.538.538 0 0 0-.54-.539c-.983 0-1.944.307-2.8.894-.855-.587-1.817-.894-2.8-.894a.538.538 0 1 0 0 1.078c.869 0 1.72.314 2.465.907a.535.535 0 0 0 .672 0c.745-.592 1.596-.907 2.465-.907.296 0 .538-.24.538-.539zm-28.937-1.178c-.298 0-.54.24-.54.539v1.792a.539.539 0 1 0 1.08 0v-1.792a.54.54 0 0 0-.54-.539zm1.958 0a.538.538 0 0 0-.54.539v1.792a.538.538 0 1 0 1.079 0v-1.792a.539.539 0 0 0-.54-.539zm1.957 0c-.3 0-.54.24-.54.539v1.792a.538.538 0 1 0 1.079 0v-1.792a.54.54 0 0 0-.54-.539zm1.956 0a.54.54 0 0 0-.54.539v1.792a.54.54 0 0 0 1.079 0v-1.792a.538.538 0 0 0-.54-.539zm1.957 0a.54.54 0 0 0-.54.539v1.792a.539.539 0 1 0 1.079 0v-1.792a.54.54 0 0 0-.539-.539zm1.957 0a.54.54 0 0 0-.541.539v1.792a.54.54 0 0 0 1.08 0v-1.792a.539.539 0 0 0-.54-.539zm32.908 26.584a.54.54 0 0 1-.74-.187 9.336 9.336 0 0 0-10.158-4.31 9.329 9.329 0 0 0-6.974 6.892.54.54 0 0 1-1.05-.26c.262-1.065.68-2.06 1.23-2.964a9.38 9.38 0 0 0-5.384-1.705 9.382 9.382 0 0 0-7.641 3.952c.39.31.754.655 1.085 1.042a.54.54 0 0 1-.82.7 6.717 6.717 0 0 0-8.693-1.318 4.496 4.496 0 0 1 1.795 1.27.54.54 0 0 1-.82.7 3.4 3.4 0 0 0-4.824-.349.539.539 0 0 1-.71-.81 4.478 4.478 0 0 1 3.137-1.103 7.89 7.89 0 0 1 1.32-.896c-.93-2.67-3.5-4.514-6.35-4.514a6.764 6.764 0 0 0-5.91 3.52c.166.2.325.406.474.623a.538.538 0 1 1-.887.612 7.784 7.784 0 0 0-6.397-3.357c-1.64 0-3.24.525-4.559 1.48.613.864 1.1 1.827 1.434 2.868a.54.54 0 0 1-1.028.33 9.325 9.325 0 0 0-6.46-6.176.539.539 0 1 1 .282-1.04 10.45 10.45 0 0 1 3.018 1.36c9.887-8.722 16.014-25.7 16.014-44.458 0-.02.005-.04.006-.058v-.567c0-.299.242-.539.54-.539h.727V.818c0-.298.24-.539.539-.539h1.428c.298 0 .54.24.54.54v.847h.726c.299 0 .539.24.539.539v1.092h13.524V2.205a.54.54 0 0 1 .54-.539h.727V.818a.54.54 0 0 1 .54-.539h1.426c.299 0 .539.24.539.54v.847h.726c.3 0 .54.24.54.539v2.08c.284 16.985 5.54 32.296 14.198 41.272.218-.066.44-.124.664-.177a10.403 10.403 0 0 1 11.327 4.807.536.536 0 0 1-.18.741zM5.372 47.76l-.2.183c.069.055.134.114.2.173zm3.037-3.165a35.523 35.523 0 0 1-1.965 2.141c.002.025.008.048.008.076v2.231a8.896 8.896 0 0 1 1.958-1.056zm3.038-4.096a41.97 41.97 0 0 1-1.96 2.763v4.386a8.866 8.866 0 0 1 1.96-.255zm3.037-5.371a52.085 52.085 0 0 1-1.959 3.636v8.674c.672.07 1.329.216 1.96.434zm3.038-7.464a60.961 60.961 0 0 1-1.959 5.124V48.33a8.95 8.95 0 0 1 1.96 1.339zm2.783-11.406a75.095 75.095 0 0 1-1.705 7.857v24.378a7.913 7.913 0 0 1 1.705-1.384zm3.961-13.514h-.727a.538.538 0 0 1-.54-.539v-.848h-.349v.848a.539.539 0 0 1-.54.539h-.727v43.824a7.787 7.787 0 0 1 2.883-.578zm14.602 46.041a.53.53 0 0 0-.526-.465h-8.477a7.751 7.751 0 0 1 1.788 2.82 7.804 7.804 0 0 1 6.655.596c.176-.249.366-.492.56-.723zm0-6c-.163.058-.341.09-.526.09H25.878a1.57 1.57 0 0 1-.532-.092v3.275a7.824 7.824 0 0 1 3.187 1.181h9.81c.183 0 .362.031.525.088zm0-13.277a.531.531 0 0 0-.526-.465H25.878a.532.532 0 0 0-.532.532l-.002.01v11.67l.002.012c0 .293.238.53.532.53h12.464a.532.532 0 0 0 .526-.464zm0-5.998a1.584 1.584 0 0 1-.526.088H25.878c-.187 0-.366-.032-.532-.09v4.547c.167-.059.345-.09.532-.09h12.464c.184 0 .363.03.526.087zm0-13.224a.531.531 0 0 0-.526-.465H25.878a.532.532 0 0 0-.532.531l-.002.012v11.613l.002.01c0 .295.238.533.532.533h12.464a.531.531 0 0 0 .526-.465zm0-5.91H25.346v4.457c.167-.06.345-.09.532-.09h12.464c.184 0 .363.03.526.088zm3.962-.112c-.009-.477-.014-.955-.014-1.433 0-.03.005-.058.01-.087h-.723c-.3 0-.54-.24-.54-.539v-.848h-.348v.848a.539.539 0 0 1-.54.539h-.726v1.028c.003.022.006.043.006.066v25.737l-.006 11.623a.47.47 0 0 1 .006.068v7.587a.468.468 0 0 1-.006.066v.997a10.487 10.487 0 0 1 2.883-1.797zm2.764 19.846a75.73 75.73 0 0 1-1.686-7.758v31.385c.548-.16 1.113-.274 1.686-.343zm3.038 8.678a61.383 61.383 0 0 1-1.758-4.523l-.202-.598v19.651c.054-.002.111-.002.166-.002.605 0 1.203.054 1.794.158zm3.037 5.97a51.625 51.625 0 0 1-1.959-3.635v12.6c.677.194 1.332.457 1.96.783zm3.038 4.502c-.677-.879-1.33-1.8-1.96-2.765v8.66l.081.056a10.288 10.288 0 0 1 1.876-1.896v-4.047c.002-.004.003-.005.003-.008zM57 45.96a39.2 39.2 0 0 1-1.216-1.367v1.984c.39-.23.796-.438 1.216-.617z"/></svg>