<svg viewBox="0 0 100 100" xmlns="http://www.w3.org/2000/svg"><svg viewBox="0 0 50 50" xmlns="http://www.w3.org/2000/svg" xmlns:xlink="http://www.w3.org/1999/xlink"><path clip-rule="evenodd" d="M0 48.73h50V35.225c-2.467.002-4.936 0-7.404 0-.11-2.035-.473-4.037-1.189-5.972l2.389-1.049 1.078 2.476 2.597-1.132-3.214-7.384-2.597 1.132 1.005 2.31-2.398 1.055a23.83 23.83 0 0 0-3.624-5.213l1.905-1.963 1.889 1.818 1.964-2.042-5.803-5.586-1.964 2.043 1.873 1.802-1.897 1.954a23.833 23.833 0 0 0-5.358-3.484l1.006-2.509 2.546 1.018 1.054-2.63-7.477-2.993-1.054 2.629 2.301.923-1.005 2.505a23.668 23.668 0 0 0-4.274-.995V1.27H0zm2.841-10.664c14.776 0 29.55.016 44.319.002v7.821H2.841zm8.334-19.724c.835 0 1.508.671 1.508 1.508a1.507 1.507 0 1 1-3.016 0c0-.833.675-1.508 1.508-1.508zm3.708 1.97a3.742 3.742 0 0 0-3.708-4.198 3.737 3.737 0 1 0 2.788 6.224l9.651 4.779c.05 1.259 1.057 2.266 2.323 2.266 1.299 0 2.31-1.046 2.326-2.334.018-1.332-.994-2.376-2.326-2.391-.522.006-.995.17-1.376.448-3.225-1.599-6.452-3.197-9.678-4.794zM2.841 4.111H19.51v12.306c6.31.864 9.154 1.683 14.19 6.021 4.279 4.677 5.498 7.62 6 12.787H2.841z"/></svg></svg>