<svg xmlns="http://www.w3.org/2000/svg"><svg baseProfile="tiny" stroke-miterlimit="10" stroke-width="4" transform="matrix(.69 0 0 .69 15.5 15.5)" version="1.2" viewBox="0 0 96 96" xmlns="http://www.w3.org/2000/svg" xmlns:xlink="http://www.w3.org/1999/xlink"><path d="M47.995 63c-5.523 0-10-4.477-10-10s4.477-10 10-10 10 4.477 10 10-4.477 10-10 10zM68.995 82.16V90h-42v-7.84c0-6.4 4.96-11.66 11.25-12.12 2.52 2.45 5.96 3.96 9.75 3.96s7.23-1.51 9.75-3.96c6.29.46 11.25 5.72 11.25 12.12zM73.995 65a8 8 0 1 1 0-16 8 8 0 0 1 0 16zM74.005 75.001c2.87 0 5.16-1.051 6.99-3.001h1.01c4.42 0 8 3.58 8 8v6H73.984M22.005 65a8 8 0 1 0 0-16 8 8 0 0 0 0 16zM21.995 75.001c-2.87 0-5.17-1.051-7.024-3.001h-1c-4.396 0-7.976 3.58-7.976 8v6h16.021M6 27v9c0 1.1.9 2 2 2h6l3 5 2.38-5H26c1.1 0 2-.9 2-2v-9c0-1.1-.9-2-2-2H8c-1.1 0-2 .9-2 2zM36 8v21c0 1.1.9 2 2 2h18l3 7 4-7h10c1.1 0 2-.9 2-2V8c0-1.1-.9-2-2-2H38c-1.1 0-2 .9-2 2zM44 14h22M44 22h14"/></svg></svg>