<svg xmlns="http://www.w3.org/2000/svg"><svg xmlns="http://www.w3.org/2000/svg" xmlns:xlink="http://www.w3.org/1999/xlink" stroke-miterlimit="10" stroke-width="4" baseProfile="tiny" transform="matrix(.69 0 0 .69 15.5 15.5)" version="1.2" viewBox="0 0 96 96"><path d="M47.995 63c-5.523 0-10-4.477-10-10s4.477-10 10-10 10 4.477 10 10-4.477 10-10 10zm21 19.16V90h-42v-7.84c0-6.4 4.96-11.66 11.25-12.12 2.52 2.45 5.96 3.96 9.75 3.96s7.23-1.51 9.75-3.96c6.29.46 11.25 5.72 11.25 12.12zm5-17.16a8 8 0 110-16 8 8 0 010 16zm.01 10.001c2.87 0 5.16-1.051 6.99-3.001h1.01c4.42 0 8 3.58 8 8v6H73.984M22.005 65a8 8 0 100-16 8 8 0 000 16zm-.01 10.001c-2.87 0-5.17-1.051-7.024-3.001h-1c-4.396 0-7.976 3.58-7.976 8v6h16.021M6 27v9c0 1.1.9 2 2 2h6l3 5 2.38-5H26c1.1 0 2-.9 2-2v-9c0-1.1-.9-2-2-2H8c-1.1 0-2 .9-2 2zM36 8v21c0 1.1.9 2 2 2h18l3 7 4-7h10c1.1 0 2-.9 2-2V8c0-1.1-.9-2-2-2H38c-1.1 0-2 .9-2 2zm8 6h22m-22 8h14"/></svg></svg>