<svg xmlns="http://www.w3.org/2000/svg"><svg xmlns="http://www.w3.org/2000/svg" xmlns:xlink="http://www.w3.org/1999/xlink" transform="matrix(.69 0 0 .69 15.5 15.5)" viewBox="0 0 100 100"><path d="M39.145 94.945L14.655 95C9.255 95 5 90.636 5 85.345l.055-1.145v-.109l.709-6.927v-.109c.764-6.164 6-10.745 12.218-10.745h17.782a12.244 12.244 0 0112.164 10.636l.055.109.709 6.927v.109l.109 1.2c-.001 5.291-4.256 9.654-9.656 9.654zm-3.381-20.454H17.982c-2.018 0-3.818 1.473-4.091 3.491v.109l-.709 6.927v.328c0 .764.655 1.473 1.473 1.473l24.491-.055c.818 0 1.473-.709 1.473-1.473v-.218l-.055-.109-.709-6.927v-.109c-.328-1.964-2.073-3.437-4.091-3.437zm50.291 3.436c-.327-1.964-2.073-3.436-4.091-3.436H64.236c-2.073 0-3.818 1.473-4.091 3.491l-.709 7.036-.055.164v.164c0 .764.655 1.473 1.527 1.473l24.436-.055c.818 0 1.473-.709 1.473-1.473v-.327zM51.2 85.345l.109-1.145h-.055l.709-7.036.055-.109c.764-6.164 6-10.745 12.218-10.745h17.727c6.164 0 11.4 4.527 12.218 10.636v.109l.764 6.927v.109l.055 1.2c0 5.291-4.2 9.655-9.655 9.655L60.909 95c-5.4 0-9.709-4.364-9.709-9.655zm27.764-36.327c0-3.164-2.618-5.782-5.782-5.782-3.218 0-5.836 2.618-5.836 5.782a5.843 5.843 0 005.836 5.836c3.163.001 5.782-2.618 5.782-5.836zm8.181 0c0 7.745-6.273 14.018-13.964 14.018-7.745 0-14.018-6.273-14.018-14.018 0-7.691 6.273-13.964 14.018-13.964 7.692.001 13.964 6.273 13.964 13.964zm-60.218 5.837c3.218 0 5.782-2.618 5.836-5.836-.055-3.164-2.618-5.782-5.836-5.782s-5.836 2.618-5.836 5.782a5.843 5.843 0 005.836 5.836zm0-19.8c7.745 0 14.018 6.273 14.018 13.964 0 7.745-6.273 14.018-14.018 14.018s-14.018-6.273-14.018-14.018c0-7.692 6.273-13.964 14.018-13.964zM44.218 5c2.073 0 4.091.545 5.782 1.527C51.691 5.545 53.709 5 55.782 5a11.826 11.826 0 0111.836 11.836c0 2.891-1.036 5.564-2.727 7.582l-8.945 9.491C54.364 35.6 52.182 36.527 50 36.527s-4.418-.873-6-2.564l-8.891-9.545c-1.691-2.018-2.727-4.691-2.727-7.582C32.382 10.291 37.727 5 44.218 5zm2.727 9.382a3.74 3.74 0 00-2.727-1.2 3.655 3.655 0 00-3.655 3.655c0 .873.218 1.582.709 2.182L50 28.291l8.727-9.273c.491-.6.709-1.309.709-2.182a3.655 3.655 0 00-3.655-3.655c-1.091 0-2.073.491-2.673 1.2-.055.055-.109.109-.218.164-.055.055-.109.164-.164.164a2.42 2.42 0 01-.6.436 1.821 1.821 0 01-.655.327 1.423 1.423 0 01-.6.164c-.273.055-.6.109-.873.109s-.545 0-.818-.109a3.645 3.645 0 01-1.855-.873 68.07 68.07 0 00-.38-.381z"/></svg></svg>