<svg viewBox="0 0 60 60" xmlns="http://www.w3.org/2000/svg"><g><path d="M34.753 18.745c0-2.76-2.3-5.06-5.06-5.06s-5.06 2.3-5.06 5.06 2.3 5.06 5.06 5.06 5.06-2.3 5.06-5.06z"/><path d="M29.693.253C13.501.253.253 13.501.253 29.693s13.248 29.44 29.44 29.44 29.44-13.248 29.44-29.44S45.885.253 29.693.253zm-15.548 9.844l.92-3.312c.092-.368.46-.552.828-.46s.552.46.46.828l-.368 1.472c4.048-2.668 8.832-4.048 13.708-4.048 5.612 0 10.856 1.84 15.364 5.244.276.276.368.644.092 1.012-.276.276-.644.368-1.012.092-4.14-3.312-9.108-5.06-14.444-5.06-4.784 0-9.292 1.38-13.156 3.956l1.84.276c.368.092.644.368.552.828-.092.368-.368.552-.644.552h-.092l-3.404-.552c-.46 0-.736-.368-.644-.828zm12.236 16.468c.276 0 .552.184.644.368l2.668 5.152 2.668-5.152c.092-.276.368-.368.644-.368 5.612 0 10.028 4.508 10.028 9.936v5.152a.726.726 0 0 1-.736.736H17.09a.726.726 0 0 1-.736-.736v-5.152c0-5.428 4.508-9.936 10.028-9.936zm-3.128-7.82c0-3.588 2.852-6.44 6.44-6.44s6.44 2.852 6.44 6.44-2.852 6.44-6.44 6.44c-3.496 0-6.44-2.944-6.44-6.44zM11.017 44.69c-.092.368-.46.644-.828.552l-3.312-.92c-.368-.092-.552-.46-.46-.828s.46-.552.828-.46l1.472.368a24.133 24.133 0 0 1-4.232-13.708c0-5.612 1.84-10.948 5.244-15.364.276-.276.644-.368 1.012-.092.276.276.368.644.092 1.012-3.22 4.14-4.968 9.108-4.968 14.444 0 4.784 1.38 9.292 3.956 13.156l.276-1.748c.092-.368.368-.644.828-.552.368.092.644.368.552.828zm34.224 4.6l-.828 3.404c-.092.276-.368.552-.644.552h-.184c-.368-.092-.552-.46-.46-.828l.368-1.472a25.066 25.066 0 0 1-13.8 4.14 25.026 25.026 0 0 1-15.364-5.244c-.276-.276-.368-.644-.092-1.012.276-.276.644-.368 1.012-.092 4.14 3.22 9.2 4.968 14.536 4.968 4.692 0 9.2-1.38 13.156-3.956l-1.748-.276c-.368-.092-.644-.368-.552-.828.092-.368.46-.644.828-.552l3.404.552h.092c.184-.092.368.276.276.644zm4.416-4.232c-.276.276-.644.368-1.012.092-.276-.276-.368-.644-.092-1.012 3.22-4.14 4.968-9.2 4.968-14.536 0-4.784-1.38-9.292-3.956-13.156l-.276 1.748c-.092.368-.46.644-.828.552s-.644-.368-.552-.828c.276-1.84.46-3.312.552-3.496.092-.46.552-.552.828-.46l3.312.92c.368.092.552.46.46.828s-.46.552-.828.46l-1.472-.276a25.066 25.066 0 0 1 4.14 13.8c0 5.612-1.84 10.948-5.244 15.364z"/><path d="M17.733 41.01h23.92v-4.417c0-4.6-3.68-8.372-8.28-8.556l-3.036 5.98c-.276.46-1.012.46-1.196 0l-3.128-6.072c-4.6.184-8.28 3.956-8.28 8.556z"/></g></svg>