<svg viewBox="0 0 100 100" xmlns="http://www.w3.org/2000/svg"><svg viewBox="0 0 512 512" xmlns="http://www.w3.org/2000/svg" xmlns:xlink="http://www.w3.org/1999/xlink"><path d="M466.442 216.952a17.962 17.962 0 0 0-3.061-2.355l-33.839-51.089c-10.771-16.263-28.848-25.972-48.355-25.972h-39.698C336.547 110.534 312.861 90 284.453 90H25.28c-9.941 0-18 8.059-18 18v245.723c0 9.941 8.059 18 18 18h26.979C60.073 400.648 86.531 422 117.894 422c31.362 0 57.82-21.352 65.634-50.277h132.31C323.652 400.648 350.11 422 381.472 422s57.82-21.352 65.634-50.277h39.614c9.941 0 18-8.059 18-18V278.51c0-15.661-6.465-30.878-17.738-41.75zm-66.913-33.565l18.892 28.522h-75.968v-38.373h38.734c7.4 0 14.256 3.683 18.342 9.851zM117.894 386c-17.639 0-31.99-14.351-31.99-31.989s14.351-31.989 31.99-31.989 31.989 14.351 31.989 31.989S135.533 386 117.894 386zm263.578 0c-17.639 0-31.989-14.351-31.989-31.989s14.35-31.989 31.989-31.989 31.989 14.351 31.989 31.989S399.111 386 381.472 386zm87.248-50.277h-21.778c-8.009-28.632-34.317-49.701-65.47-49.701s-57.461 21.069-65.47 49.701H183.364c-8.009-28.632-34.317-49.701-65.47-49.701-31.154 0-57.462 21.069-65.471 49.701H43.28V126h241.173c12.131 0 22 9.869 22 22v81.909c0 9.941 8.059 18 18 18h122.229l15.31 14.764a22.114 22.114 0 0 1 6.729 15.837v57.213z"/></svg></svg>