<svg xmlns="http://www.w3.org/2000/svg" viewBox="0 0 100 100"><svg xmlns="http://www.w3.org/2000/svg" viewBox="0 0 100 100"><path d="M39.965 9.022c-6.028 0-11 4.973-11 11 0 4.615 2.928 8.6 7 10.22V52.96a4 4 0 004 4H63.59l10.875 19.937a4 4 0 003.5 2.094l7-.03a4 4 0 100-8l-4.625.03-10.875-19.937a4 4 0 00-3.5-2.094h-22v-5h18a4 4 0 100-8h-18v-5.719c4.081-1.614 7-5.596 7-10.219 0-6.027-4.973-11-11-11zm0 8c1.704 0 3 1.296 3 3 0 1.705-1.296 2.97-3 2.97s-2.97-1.265-2.97-2.97c0-1.704 1.265-3 2.97-3zm-15 21.72a27.98 27.98 0 00-13.032 17c-3.99 14.89 4.89 30.29 19.782 34.28 14.891 3.99 30.29-4.89 34.28-19.78l-7.718-2.063c-2.87 10.715-13.785 16.996-24.5 14.125s-16.996-13.785-14.125-24.5a19.947 19.947 0 019.313-12.125z"/></svg></svg>