<svg viewBox="0 0 100 100" xmlns="http://www.w3.org/2000/svg"><svg viewBox="0 0 96 96" xmlns="http://www.w3.org/2000/svg"><path d="M64.639 60.134A30.299 30.299 0 0 0 72 40a29.265 29.265 0 0 0-.35-4.26 5.977 5.977 0 0 0-.533-11.628A22.015 22.015 0 0 0 50 8h-4a22.015 22.015 0 0 0-21.117 16.113 5.977 5.977 0 0 0-.533 11.628A29.265 29.265 0 0 0 24 40a30.299 30.299 0 0 0 7.361 20.134A26.037 26.037 0 0 0 8 86a1.999 1.999 0 0 0 2 2h76a1.999 1.999 0 0 0 2-2 26.037 26.037 0 0 0-23.361-25.866zM46 12h4a18.065 18.065 0 0 1 16.975 12h-37.95A18.065 18.065 0 0 1 46 12zM26 28h44a2 2 0 0 1 0 4H26a2 2 0 0 1 0-4zm2.316 8h39.368A24.858 24.858 0 0 1 68 40H28a24.858 24.858 0 0 1 .316-4zm32.84 9.4a1.999 1.999 0 0 1-2 2h-4a2 2 0 0 1 0-4h4a1.999 1.999 0 0 1 2 2zm-18.312 0a1.999 1.999 0 0 1-2 2h-4a2 2 0 0 1 0-4h4a1.999 1.999 0 0 1 2 2zm-12.65 5.474C41.624 56.69 40.486 49.583 48 49.583c7.42 0 7.974 6.859 17.732 1.476C62.392 58.738 55.703 64 48 64c-7.764 0-14.494-5.348-17.806-13.125zM12.09 84A22.03 22.03 0 0 1 34 64h1.701A20.907 20.907 0 0 0 60.3 64H62a22.03 22.03 0 0 1 21.91 20z"/></svg></svg>