<svg xmlns="http://www.w3.org/2000/svg" viewBox="0 0 100 100"><svg xmlns="http://www.w3.org/2000/svg" viewBox="0 0 96 96"><path d="M64.639 60.134A30.299 30.299 0 0072 40a29.265 29.265 0 00-.35-4.26 5.977 5.977 0 00-.533-11.628A22.015 22.015 0 0050 8h-4a22.015 22.015 0 00-21.117 16.113 5.977 5.977 0 00-.533 11.628A29.265 29.265 0 0024 40a30.299 30.299 0 007.361 20.134A26.037 26.037 0 008 86a1.999 1.999 0 002 2h76a1.999 1.999 0 002-2 26.037 26.037 0 00-23.361-25.866zM46 12h4a18.065 18.065 0 0116.975 12h-37.95A18.065 18.065 0 0146 12zM26 28h44a2 2 0 010 4H26a2 2 0 010-4zm2.316 8h39.368A24.858 24.858 0 0168 40H28a24.858 24.858 0 01.316-4zm32.84 9.4a1.999 1.999 0 01-2 2h-4a2 2 0 010-4h4a1.999 1.999 0 012 2zm-18.312 0a1.999 1.999 0 01-2 2h-4a2 2 0 010-4h4a1.999 1.999 0 012 2zm-12.65 5.474C41.624 56.69 40.486 49.583 48 49.583c7.42 0 7.974 6.859 17.732 1.476C62.392 58.738 55.703 64 48 64c-7.764 0-14.494-5.348-17.806-13.125zM12.09 84A22.03 22.03 0 0134 64h1.701A20.907 20.907 0 0060.3 64H62a22.03 22.03 0 0121.91 20z"/></svg></svg>