<svg viewBox="0 0 57 57" xmlns="http://www.w3.org/2000/svg"><path d="M30.558 12.785c-.552 0-1.104.069-1.587.276V8.093c0-2.622-2.139-4.692-4.692-4.692-.621 0-1.173.138-1.725.345A4.679 4.679 0 0 0 18 .296c-2.139 0-4.002 1.449-4.554 3.45-.552-.207-1.104-.345-1.725-.345-2.622 0-4.692 2.139-4.692 4.692v12.696C3.441 21.548.75 24.653.75 28.448v3.105c0 5.796 2.967 11.247 7.797 14.421v9.039c0 .897.69 1.587 1.587 1.587s1.587-.69 1.587-1.587v-9.66c.138-.621-.207-1.311-.759-1.587-4.278-2.484-7.038-7.176-7.038-12.213v-3.105a4.652 4.652 0 0 1 3.105-4.416v7.521c0 .897.69 1.587 1.587 1.587s1.587-.69 1.587-1.587V8.093c0-.897.69-1.587 1.587-1.587.828 0 1.587.69 1.587 1.587v14.076c0 .897.69 1.587 1.587 1.587s1.587-.69 1.587-1.587V4.988c0-.897.69-1.587 1.587-1.587s1.587.69 1.587 1.587v17.181c0 .897.69 1.587 1.587 1.587s1.587-.69 1.587-1.587V8.093c0-.897.69-1.587 1.587-1.587s1.587.69 1.587 1.587v18.768c0 .897.69 1.587 1.587 1.587s1.587-.69 1.587-1.587v-9.384c0-.897.69-1.587 1.587-1.587.828 0 1.587.69 1.587 1.587v14.076c0 5.037-2.691 9.66-7.038 12.213a1.646 1.646 0 0 0-.759 1.587v9.66c0 .897.69 1.587 1.587 1.587s1.587-.69 1.587-1.587v-9.039c4.485-3.174 7.452-8.625 7.452-14.421V17.477c0-2.553-2.139-4.692-4.692-4.692z"/></svg>