<svg xmlns="http://www.w3.org/2000/svg" viewBox="15 4 50 70"><path d="M38.5 6C35.474 6 33 8.474 33 11.5v.76c-.96-.748-2.154-1.26-3.5-1.26-3.026 0-5.5 2.474-5.5 5.5v20.188c-1.94 2.898-4.158 5.718-6.135 8.714-.652.876-1.498 2.26-2.172 3.692h.002a7.328 7.328 0 00-.693 3.29 7.6 7.6 0 00.818 3.255c2.991 5.919 6.493 11.394 12.166 15.353l.625.438.092-.076C30.248 72.339 32.031 73 34 73h15c6.615 0 12-5.385 12-12V24c0-2.75-2.25-5-5-5-1.128 0-2.16.393-3 1.03V15.5c0-3.026-2.474-5.5-5.5-5.5a5.73 5.73 0 00-3.516 1.217C43.834 8.322 41.43 6 38.5 6zm0 2c1.944 0 3.5 1.556 3.5 3.5V15a1 1 0 102 0c0-1.328 1.552-3 3.5-3 1.944 0 3.5 1.556 3.5 3.5V24a1 1 0 102 0c0-1.668 1.332-3 3-3s3 1.332 3 3v37c0 5.535-4.465 10-10 10H34a7.92 7.92 0 01-4.824-1.633l-.315-.238c-5.11-3.669-8.379-8.7-11.256-14.393h-.001a5.602 5.602 0 01-.602-2.396 5.328 5.328 0 01.502-2.395c.608-1.29 1.43-2.625 1.967-3.347l.015-.024.018-.023c1.402-2.13 2.97-4.213 4.496-6.35V50a1 1 0 001 1 1 1 0 001-1V16.5c0-1.944 1.556-3.5 3.5-3.5 1.948 0 3.5 1.672 3.5 3a1 1 0 002 0v-4.5C35 9.556 36.556 8 38.5 8zM43 18a1 1 0 00-1 1 1 1 0 001 1 1 1 0 001-1 1 1 0 00-1-1zm-9 1a1 1 0 00-1 1 1 1 0 001 1 1 1 0 001-1 1 1 0 00-1-1zm9 3a1 1 0 00-1 1 1 1 0 001 1 1 1 0 001-1 1 1 0 00-1-1zm-9 1a1 1 0 00-1 1 1 1 0 001 1 1 1 0 001-1 1 1 0 00-1-1zm9 3a1 1 0 00-1 1 1 1 0 001 1 1 1 0 001-1 1 1 0 00-1-1zm-9 1a1 1 0 00-1 1 1 1 0 001 1 1 1 0 001-1 1 1 0 00-1-1zm18 0a1 1 0 00-1 1 1 1 0 001 1 1 1 0 001-1 1 1 0 00-1-1zm-9 3a1 1 0 00-1 1 1 1 0 001 1 1 1 0 001-1 1 1 0 00-1-1zm-9 1a1 1 0 00-1 1 1 1 0 001 1 1 1 0 001-1 1 1 0 00-1-1zm18 0a1 1 0 00-1 1 1 1 0 001 1 1 1 0 001-1 1 1 0 00-1-1zm-9 3a1 1 0 00-1 1 1 1 0 001 1 1 1 0 001-1 1 1 0 00-1-1zm-9 1a1 1 0 00-1 1 1 1 0 001 1 1 1 0 001-1 1 1 0 00-1-1zm18 0a1 1 0 00-1 1 1 1 0 001 1 1 1 0 001-1 1 1 0 00-1-1zm-9 3a1 1 0 00-1 1 1 1 0 001 1 1 1 0 001-1 1 1 0 00-1-1zm-9 1a1 1 0 00-1 1 1 1 0 001 1 1 1 0 001-1 1 1 0 00-1-1zm18 0a1 1 0 00-1 1 1 1 0 001 1 1 1 0 001-1 1 1 0 00-1-1z"/></svg>