<svg viewBox="0 0 50 50" xmlns="http://www.w3.org/2000/svg"><path d="M23 1C15.773 1 10.445 3.492 7 7.398 3.555 11.308 2 16.558 2 22c0 4.406 1.363 8.508 3.676 11.867C7.77 36.914 9 40.52 9 44.2V49h2v-4.8c0-4.122-1.371-8.114-3.676-11.466A18.896 18.896 0 0 1 4 22c0-5.059 1.445-9.809 4.5-13.273C11.555 5.257 16.227 3 23 3c6.8 0 11.207 1.98 14.117 5.008 2.91 3.023 4.356 7.195 4.89 11.71l.024.204 4.797 8.265c.246.446.121.891-.312 1.137L42 31.582v6.016c0 3.742-3.078 6.652-6.809 6.308l-.015-.004-4.176-.27V49h2v-3.234l2.008.129c4.87.457 8.992-3.438 8.992-8.297v-4.782l3.484-1.742c1.364-.758 1.84-2.508 1.09-3.86l-.004-.007-4.648-8.008c-.594-4.683-2.117-9.203-5.363-12.582C35.242 3.172 30.199 1 23 1zm4 7v2.102a4.935 4.935 0 0 0-1.75.734l-1.492-1.492-1.414 1.414 1.492 1.492a4.935 4.935 0 0 0-.734 1.75H21v2h2.102c.128.637.386 1.227.734 1.75l-1.492 1.492 1.414 1.414 1.492-1.492a4.935 4.935 0 0 0 1.75.734V22h2v-2.102a4.935 4.935 0 0 0 1.75-.734l1.492 1.492 1.414-1.414-1.492-1.492a4.935 4.935 0 0 0 .734-1.75H35v-2h-2.102a4.935 4.935 0 0 0-.734-1.75l1.492-1.492-1.414-1.414-1.492 1.492a4.935 4.935 0 0 0-1.75-.734V8zm1 4c1.668 0 3 1.332 3 3s-1.332 3-3 3-3-1.332-3-3 1.332-3 3-3zm-13 4v2.102a4.89 4.89 0 0 0-1.746.742l-1.496-1.5-1.414 1.414 1.5 1.5A4.928 4.928 0 0 0 11.109 22H9v2h2.102c.128.637.386 1.227.734 1.75l-1.492 1.492 1.414 1.414 1.492-1.492a4.935 4.935 0 0 0 1.75.734V30h2v-2.102a4.935 4.935 0 0 0 1.75-.734l1.492 1.492 1.414-1.414-1.492-1.492a4.935 4.935 0 0 0 .734-1.75H23v-2h-2.11a4.928 4.928 0 0 0-.734-1.742l1.5-1.5-1.414-1.414-1.496 1.5A4.89 4.89 0 0 0 17 18.102V16zm1 4c1.668 0 3 1.332 3 3s-1.332 3-3 3-3-1.332-3-3 1.332-3 3-3z"/></svg>