<svg viewBox="0 0 50 50" xmlns="http://www.w3.org/2000/svg"><path d="M18.076 1.01a1.854 1.854 0 0 0-.582.064c-.745.21-1.188.66-1.49.9-.302.24-.378.292-.594.284-.021 0-.391-.13-.87-.301-.48-.172-1.256-.386-2.005.05a1.886 1.886 0 0 0-.797.966 2.496 2.496 0 0 0-.127.99c.032.595.191 1.106.25 1.367.112.491.26.93.553 1.307.189.241.429.376.656.535-.194.149-.307.144-.523.525-.362.636-.41 1.13-.498 1.3-.18.347-.472.716-.807 1.12-.745.899-1.444 1.794-2.19 2.563-.297.306-.569.55-.759.652-.19.103-.236.119-.443.049-.1-.034-.178-.099-.471-.203-.293-.105-.767-.126-1.154-.012-.83.244-1.431.777-1.717 1.635-.114.342-.142.76-.045 1.101.097.343.256.564.38.748.281.413.364.518.495.905.184.542.465.92.654 1.265.149.27.16.37.18.416-.163 0-.418-.01-.813-.072-.477-.074-1.027-.189-1.671-.082-.645.107-1.426.689-1.633 1.49-.119.457-.015.915.154 1.244.168.33.39.573.62.778.13.117.263.142.396.236-.152.31-.283.66-.221.947.08.37.25.654.467.942.418.557 1.023 1.242 1.818 1.752.795.51 1.939.854 3.008.324.105-.053.12-.15.21-.215-.007.664-.036 1.37-.066 1.963-.078 1.558.166 3.034.553 4.47.615 2.284 1.28 4.642 2.156 6.9.45 1.159 1.014 2.17 1.418 3.161a1 1 0 0 0 .002 0c.377.922.587 2.028 1.032 3.194a1 1 0 0 0 0 .002c.122.319.315.848.623 1.37.307.523.736 1.14 1.578 1.344.468.114.999.014 1.355-.2.357-.216.565-.483.73-.708.333-.45.587-.748.528-.715.045-.025.145-.052.39-.17.246-.117.599-.387.805-.74.373-.635.322-1.035.295-.976.034-.076.079-.092.44-.334.18-.122.432-.303.64-.612s.327-.725.326-1.136c-.001-.907.053-1.418.323-2.262.434-1.36.25-2.512.119-3.643-.054-.465-.081-.955-.035-1.185.023-.115.051-.145.039-.131-.012.013-.062.02.031.006.361-.054.744-.138 1.053-.397.305-.256.331-.376.492-.56.093-.005.408.012.838-.123a1 1 0 0 0 .002 0c.384-.123.776-.413.967-.698.19-.284.228-.44.29-.556.21-.385.267-.486.536-.7 1.027-.816 1.952-1.664 2.883-2.535a1 1 0 0 0 .002-.002c.613-.575 1.509-.907 2.521-1.62.48-.338 1.055-.858 1.275-1.655.12-.434.102-.77.114-.92.012-.15-.005-.087.027-.127.006-.007.197-.157.336-.275.012.016-.003.019.01.035v.002c.413.523.901.546 1.27.539.367-.007.694-.039 1.099-.373l.002-.002c.618-.511.669-1.284.605-1.79-.063-.505-.224-.922-.312-1.167-.189-.527-.32-.862-.371-1.26a1 1 0 0 0 0-.002c-.034-.262-.05-.524-.153-.861a2.556 2.556 0 0 0-.586-.965c.175-.114.361-.165.514-.475.044-.088-.005-.215.012-.332.228.354.555.746 1.129.891.492.125.823.048 1.17-.002.197-.028.365-.053.547-.082-.05.04-.059.029-.11.076a1 1 0 0 0-.002 0c-.426.398-.602.823-.703 1.365a2.01 2.01 0 0 0 .024.914c.091.34.335.726.7.948.324.196.845.244 1.286.084.044.39.073.772.379 1.226.16.238.477.528.902.594.425.066.794-.095 1.047-.271.498-.348.7-.925.748-1.35.047-.425.002-.784-.027-1.094a4.761 4.761 0 0 1-.026-.554c.17.026.24.094.524.003a1 1 0 0 0 .002-.002 1.86 1.86 0 0 0 .965-.76c.186-.29.271-.556.335-.76.194-.612.11-1.104.096-1.417-.01-.222-.01-.12-.014-.115-.002.005.14-.172.327-.494.28-.485.288-.96.297-1.229.008-.269.027-.34.029-.344.004-.009.282-.274.635-.521.346-.242.444-.293.6-.29a1 1 0 0 0 .001.003l.057.006a1 1 0 0 0 1.515-.467v-.002a1.453 1.453 0 0 0-.007-.914c-.004-.01-.007-.009-.01-.018.052-.05.082-.038.137-.113.202-.278.27-.777.173-1.092-.272-.883-.948-1.195-1.117-1.346-.127-.114-.432-.795-1.33-1.2-.748-.338-1.425-.23-2.076-.102-.651.127-1.24.327-1.707.578-1.067.573-1.534 1.422-1.982 1.79.074-.06-.32.134-.754.327-.217.097-.458.21-.71.42s-.532.575-.585 1.039c-.034.29.115.366.207.566-.619.117-1.319.176-1.862.09-.33-.052-.387-.108-.406-.127-.018-.018-.086-.108-.164-.437-.104-.44-.232-.895-.726-1.356-.248-.23-.75-.486-1.272-.351s-.802.504-.996.86c-.35.64-.267 1.274-.211 1.665.044.309.04.402.041.47-.029.003-.014.004-.055.003-.285-.012-.748-.136-1.115-.235-.918-.247-1.872-.7-2.959-1.072a1 1 0 0 0-.002 0c-1.208-.412-2.345-.614-3.305-1.004-.558-.227-1.393-.487-2-.818-.299-.164-.511-.344-.576-.426-.005.033.072-.075.338-.322.287-.266.786-.792.781-1.559a1 1 0 0 0 0-.002c-.005-.878-.64-1.486-1.128-1.79-.488-.306-.964-.486-1.13-.583a3.112 3.112 0 0 1-.747-.6c-.04-.044-.024-.065-.053-.107.214-.046.416-.033.615-.191.371-.294.641-.827.63-1.283-.01-.457-.183-.77-.333-1.014s-.303-.434-.41-.578c-.094-.126-.12-.187-.11-.149.003-.009.002.003.008-.021.03-.123.14-.441.094-.875-.055-.51-.433-1.027-.717-1.223-.284-.196-.383-.231-.412-.258.002.002-.102-.2-.36-.586a1.705 1.705 0 0 0-.689-.625 1.52 1.52 0 0 0-.58-.136zm-.222 2.113c.09.184.155.402.519.727.236.21.347.251.447.302-.006.028 0-.01-.025.1-.052.22-.123.669.031 1.115.124.357.283.536.414.711l.055.074c-.24.01-.467-.046-.734.207-.41.388-.427.823-.424 1.188.005.744.348 1.36.738 1.814.39.454.845.784 1.262 1.026.428.248.83.396 1.072.547.202.126.165.103.158.09a3.063 3.063 0 0 0-.11.099c-.203.189-.648.475-.886 1.137-.233.65-.04 1.399.307 1.855.346.457.781.74 1.218.979.875.477 1.867.776 2.204.914a1 1 0 0 0 .002 0c1.22.496 2.402.7 3.414 1.045.938.32 1.932.8 3.086 1.111.302.081.883.274 1.552.3.143.007.32-.064.477-.081.031.13-.064.28-.012.39.117.246.173.18.32.334-.102.092-.224.138-.312.274-.208.32-.258.85-.139 1.178.238.655.564.78.748.97a1 1 0 0 0 .002.002c.117.12.106.12.125.182.02.062.041.235.08.537.086.664.292 1.17.465 1.65-.279-.065-.58-.21-.775-.162a2.722 2.722 0 0 0-.807.362c-.463.289-.81.583-1.084.918-.336.411-.447.918-.472 1.232-.026.314-.025.463-.05.55-.057.209-.15.306-.5.552-.737.52-1.763.884-2.738 1.798-.918.86-1.803 1.67-2.76 2.43-.495.394-.803.857-1.048 1.309a2.133 2.133 0 0 0-.15.306c-.085.02-.146.014-.446.045-.33.034-.892.26-1.238.655-.207.235-.25.29-.233.289l-.11.015c-.474.07-.929.303-1.23.639a2.23 2.23 0 0 0-.511 1.074c-.14.7-.043 1.334.012 1.805.135 1.177.248 1.904-.04 2.806l.002-.002c-.326 1.02-.42 1.864-.417 2.875v.024c.006-.009.006 0-.083.06-.21.141-.826.453-1.15 1.178a1 1 0 0 0 0 .002c-.266.596-.234.811-.185.75-.057.022-.211.067-.465.211-.737.417-.947.995-1.149 1.268-.043.058-.038.048-.066.078-.019-.027-.112-.08-.266-.342-.188-.32-.356-.746-.48-1.07-.36-.943-.57-2.067-1.05-3.237v-.002c-.464-1.138-1.022-2.139-1.405-3.127-.83-2.136-1.48-4.43-2.09-6.697-.353-1.307-.55-2.561-.485-3.85.063-1.245-.006-2.449.112-3.486-.01.086.013-.048.045-.185s.072-.316.095-.528a1.71 1.71 0 0 0-.064-.802c-.113-.342-.531-.782-.977-.871h-.002c-.531-.107-1.098.254-1.29.503-.194.25-.256.436-.276.475-.213.415-.319.759-.42.959-.1.2-.135.238-.254.297-.286.142-.565.087-1.039-.217-.309-.198-.572-.526-.848-.828.19-.01.326.014.579-.037.257-.052.57-.028.964-.531.198-.252.294-.74.19-1.063a1.316 1.316 0 0 0-.434-.629 1 1 0 0 0-.002-.002c-.406-.355-.746-.321-.978-.318a3.926 3.926 0 0 0-.592.059c-.24.036-.476.014-.496.033a2.625 2.625 0 0 1-.588-.367c-.02-.018-.017-.02-.033-.038.18-.01.499.009.92.075.473.073.998.191 1.637.08a1.87 1.87 0 0 0 .99-.49c.298-.294.469-.703.525-1.102.11-.782-.214-1.326-.459-1.772-.244-.444-.478-.84-.514-.945v-.002c-.198-.584-.453-.974-.732-1.385-.07-.102-.063-.095-.072-.11.035-.042.294-.297.351-.323.04.022.159.09.436.183.726.244 1.49.108 2.03-.183.54-.291.92-.682 1.245-1.018a1 1 0 0 0 0-.002c.85-.876 1.576-1.815 2.293-2.68a1 1 0 0 0 .002 0c.34-.409.732-.878 1.041-1.474.326-.629.385-1.098.461-1.232-.047.083.237-.133.656-.557.21-.212.544-.692.422-1.272-.121-.58-.5-.855-.873-1.086-.34-.21-.46-.313-.5-.365-.04-.051-.095-.143-.18-.517-.084-.375-.189-.772-.203-1.032-.003-.061.003-.063.006-.1.002.007-.006-.01.252.083.33.118.772.39 1.475.416.85.03 1.511-.4 1.908-.715a3.73 3.73 0 0 1 .606-.418zm26.566 9.723c.164.003.267.014.252.008-.038-.018.263.37.816.867a1 1 0 0 0 .002.002c.176.157.134.106.219.18-.075.098-.162.12-.209.265-.027.082.014.148.006.232-.434.132-.917.244-1.178.426-.31.218-.904.52-1.277 1.268-.244.488-.231.93-.239 1.174-.007.243-.025.28-.029.287-.097.168-.194.25-.355.549-.162.299-.243.73-.225 1.15.02.464.05.559-.004.73-.032.102-.054.138-.076.188-.263-.036-.727-.077-1.117.219a1 1 0 0 0-.002 0c-.097.073-.07.186-.145.273-.049-.089-.173-.155-.246-.24.118-.299.197-.648.125-.977-.132-.608-.696-1.118-1.183-1.263-.488-.146-.908-.11-1.297-.067-.389.043-.749.112-1.03.153-.264.038-.457.018-.388.039.002-.014 0-.043-.059-.17-.045-.098-.284-.294-.369-.453.697.028 1.407.046 2.037-.088.144-.031.438-.079.785-.252a1.62 1.62 0 0 0 .56-.438c.186-.228.326-.593.31-.94-.018-.36-.147-.386-.264-.542.283-.117.67-.182 1.156-.58a1 1 0 0 0 .002 0c.835-.686 1.228-1.346 1.658-1.576.19-.102.692-.288 1.147-.377.227-.045.453-.05.617-.047zm-11.55 12.17c0 .01.038.114.035.138-.003-.011-.02-.026-.021-.037-.023-.111-.01-.14-.014-.101z"/></svg>