<svg xmlns="http://www.w3.org/2000/svg" fill-rule="evenodd" stroke-linejoin="round" stroke-miterlimit="1.414" clip-rule="evenodd" viewBox="0 0 1250 900"><clipPath id="a"><circle cx="769.209" cy="688.06" r="129.181"/></clipPath><clipPath id="b"><path d="M708.843 634.222h123.258V757.48H708.843z"/></clipPath><clipPath id="c"><circle cx="1051.49" cy="495.233" r="129.181"/></clipPath><clipPath id="d"><circle cx="280.838" cy="688.06" r="129.181"/></clipPath><clipPath id="e"><circle cx="252.924" cy="217.336" r="129.181"/></clipPath><clipPath id="f"><circle cx="851.387" cy="217.336" r="129.181"/></clipPath><clipPath id="g"><path d="M784.089 155.875h137.136v137.136H784.089z"/></clipPath><path fill="#fff" fill-rule="nonzero" stroke="#000" stroke-width="10.15" d="M331.381 167.87c-175.835 0-320.916 127.863-320.916 282.83-.167 5.156.335 10.312 1.338 15.32 9.36 147.603 150.094 267.511 319.578 267.511 77.053 0 132.377-19.297 175.166-49.495-38.443-41.541-64.518-90.3-81.566-135.523-21.394 22.685-50.812 34.175-93.6 34.175-79.393 0-146.752-57.745-149.761-127.274V450.7c0-71.297 68.863-131.987 149.761-131.987 57.998 0 74.713 11.195 96.274 35.354 21.562 24.158 39.279 68.498 58.835 120.203 19.555 51.705 39.947 111.364 86.914 164.984s129.035 94.277 228.652 94.277c175.835 0 320.915-127.863 320.915-282.831v-7.07c-.334-2.799-.668-5.451-1.337-8.25-9.36-147.602-150.095-267.51-319.578-267.51-77.053 0-132.377 19.297-175.166 49.495 38.443 45.223 64.517 93.982 81.566 135.523 25.74-22.685 50.811-34.175 93.6-34.175 79.393 0 146.752 57.744 149.76 127.274v4.713c0 71.297-68.863 131.988-149.76 131.988-56.661 0-72.373-11.195-93.6-35.354-21.227-24.158-39.279-68.203-58.835-120.203-19.555-51.999-40.615-111.364-88.251-164.984S431.667 167.87 331.381 167.87z"/><circle cx="769.209" cy="688.06" r="129.181" fill="#c2f4fe"/><g clip-path="url(#a)"><g clip-path="url(#b)"><path fill-rule="nonzero" d="M723.172 634.222a2.465 2.465 0 00-2.003 2.465v106.002a2.47 2.47 0 002.465 2.465h48.918c5.18 3.101 11.18 4.93 17.641 4.93 8.638 0 16.515-3.216 22.572-8.474l15.869 15.87 3.467-3.467-15.87-15.869c5.258-6.057 8.474-13.934 8.474-22.572 0-11.7-5.864-22.023-14.791-28.272v-50.613a2.47 2.47 0 00-2.465-2.465zm2.927 4.93h78.885v45.298c-4.497-2.148-9.485-3.39-14.791-3.39a34.357 34.357 0 00-21.339 7.395h-25.499v4.931h20.415c-2.446 2.908-4.391 6.249-5.778 9.86h-14.637v4.931h13.173c-.529 2.388-.847 4.843-.847 7.395 0 .838.019 1.647.077 2.465h-12.403v4.931h13.096a34.55 34.55 0 009.553 17.256h-39.905zm17.256 19.722v4.93h46.838v-4.93zm0 14.791v4.93h46.838v-4.93zm46.838 12.325c5.845 0 11.286 1.637 15.869 4.545.077.058.154.106.231.154a29.589 29.589 0 0113.482 24.883c0 16.37-13.212 29.582-29.582 29.582-5.941 0-11.469-1.695-16.101-4.699a29.59 29.59 0 01-13.481-24.883c0-16.37 13.212-29.582 29.582-29.582zm-19.721 14.791a20.865 20.865 0 00-3.698 7.396h35.745v-7.396zm-4.468 19.721c.491 2.716 1.54 5.181 2.773 7.396h33.742v-7.396z"/></g></g><circle cx="769.209" cy="688.06" r="129.181" fill="none" stroke="#000" stroke-linecap="round" stroke-miterlimit="1.5" stroke-width="8.5"/><circle cx="1051.49" cy="495.233" r="129.181" fill="#c2f4fe"/><g clip-path="url(#c)"><path fill-rule="nonzero" d="M1053.09 439.087c-2.667 0-5.307.218-7.887.57a2.525 2.525 0 00-2.179 2.494 2.53 2.53 0 002.857 2.493c2.402-.327 4.819-.525 7.209-.525 19.059 0 35.593 10.101 44.902 25.158h-17.263a2.528 2.528 0 00-2.516 2.516 2.527 2.527 0 002.516 2.516h22.678a2.528 2.528 0 002.516-2.516v-22.677a2.528 2.528 0 00-2.516-2.516h-.039a2.529 2.529 0 00-2.477 2.55v15.366c-10.404-15.301-27.869-25.429-47.801-25.429zm-47.802 5.032l-.036-.001a2.528 2.528 0 00-2.516 2.516 2.529 2.529 0 002.516 2.517l.036-.001h15.154c-15.282 10.448-25.218 28.074-25.218 47.802 0 2.725.16 5.308.477 7.857a2.526 2.526 0 002.504 2.269 2.528 2.528 0 002.488-2.888 58.124 58.124 0 01-.437-7.238c0-18.95 10.016-35.757 25.159-45.055v17.416a2.528 2.528 0 002.516 2.516 2.528 2.528 0 002.516-2.516v-22.679a2.527 2.527 0 00-2.516-2.515zm102.517 42.735a2.527 2.527 0 00-2.378 2.875c.31 2.382.496 4.815.496 7.223 0 20.1-11.239 37.383-27.675 46.352v-18.677l.001-.035a2.529 2.529 0 00-2.517-2.516h-.039a2.528 2.528 0 00-2.476 2.551v22.643a2.528 2.528 0 002.515 2.516h22.679a2.528 2.528 0 002.516-2.516 2.529 2.529 0 00-2.516-2.517l-.036.001h-12.849c15.3-10.404 25.429-27.87 25.429-47.802 0-2.664-.202-5.308-.536-7.872a2.526 2.526 0 00-2.614-2.226zm-105.033 32.741a2.528 2.528 0 00-2.516 2.516v22.678a2.528 2.528 0 002.516 2.516 2.528 2.528 0 002.516-2.516v-15.332c10.44 15.312 28.014 25.36 47.802 25.36 1.794 0 3.531-.067 5.238-.206a2.528 2.528 0 002.313-2.509 2.529 2.529 0 00-2.726-2.508 59.345 59.345 0 01-4.825.192c-18.937 0-35.624-10.061-44.947-25.159h17.307a2.529 2.529 0 002.517-2.516 2.529 2.529 0 00-2.517-2.516z"/></g><circle cx="1051.49" cy="495.233" r="129.181" fill="none" stroke="#000" stroke-linecap="round" stroke-miterlimit="1.5" stroke-width="8.5"/><circle cx="280.838" cy="688.06" r="129.181" fill="#c2f4fe"/><g clip-path="url(#d)"><path fill-rule="nonzero" d="M276.405 625.97c-19.115 0-33.209 6.592-42.322 16.925-9.113 10.343-13.226 24.23-13.226 38.623 0 11.655 3.606 22.505 9.723 31.391 5.538 8.059 8.793 17.596 8.793 27.329v12.699h5.291v-12.699c0-10.901-3.627-21.46-9.723-30.326-5.528-8.039-8.793-17.834-8.793-28.394 0-13.381 3.823-25.945 11.903-35.11 8.08-9.175 20.438-15.148 38.354-15.148 17.989 0 29.645 5.239 37.342 13.247 7.698 7.997 11.521 19.032 12.937 30.977l.062.537 12.688 21.864c.651 1.178.321 2.356-.826 3.007l-11.945 5.972v15.912c0 9.899-8.142 17.597-18.01 16.687l-.041-.01-11.045-.713v14.197h5.29v-8.555l5.311.341c12.885 1.209 23.786-9.093 23.786-21.947v-12.647l9.216-4.608c3.606-2.005 4.867-6.634 2.883-10.209l-.01-.02-12.296-21.182c-1.571-12.389-5.6-24.344-14.187-33.282-8.772-9.113-22.112-14.858-41.155-14.858zm10.581 18.516v5.559a13.054 13.054 0 00-4.629 1.943l-3.947-3.948-3.741 3.741 3.948 3.947a13.054 13.054 0 00-1.943 4.629h-5.559v5.29h5.559a13.046 13.046 0 001.943 4.629l-3.948 3.947 3.741 3.741 3.947-3.947a13.07 13.07 0 004.629 1.942v5.559h5.29v-5.559a13.062 13.062 0 004.629-1.942l3.947 3.947 3.741-3.741-3.947-3.947a13.062 13.062 0 001.942-4.629h5.559v-5.29h-5.559a13.07 13.07 0 00-1.942-4.629l3.947-3.947-3.741-3.741-3.947 3.948a13.046 13.046 0 00-4.629-1.943v-5.559zm2.645 10.581a7.898 7.898 0 017.936 7.935 7.9 7.9 0 01-7.936 7.936 7.898 7.898 0 01-7.935-7.936 7.897 7.897 0 017.935-7.935zm-34.387 10.58v5.559c-1.684.341-3.224 1.033-4.619 1.963l-3.957-3.967-3.74 3.74 3.967 3.968c-.919 1.384-1.601 2.934-1.942 4.608h-5.58v5.29h5.559a13.038 13.038 0 001.943 4.629l-3.947 3.948 3.74 3.74 3.947-3.947a13.07 13.07 0 004.629 1.942v5.559h5.29v-5.559a13.055 13.055 0 004.629-1.942l3.948 3.947 3.74-3.74-3.947-3.948a13.055 13.055 0 001.942-4.629h5.559v-5.29h-5.579c-.341-1.674-1.023-3.224-1.943-4.608l3.968-3.968-3.74-3.74-3.958 3.967c-1.395-.93-2.934-1.622-4.619-1.963v-5.559zm2.645 10.581a7.898 7.898 0 017.936 7.935 7.9 7.9 0 01-7.936 7.936 7.898 7.898 0 01-7.935-7.936 7.897 7.897 0 017.935-7.935z"/></g><circle cx="280.838" cy="688.06" r="129.181" fill="none" stroke="#000" stroke-linecap="round" stroke-miterlimit="1.5" stroke-width="8.5"/><circle cx="252.924" cy="217.336" r="129.181" fill="#c2f4fe"/><g clip-path="url(#e)"><path fill-rule="nonzero" d="M254.207 153.151c-15.24 0-27.636 12.395-27.636 27.636 0 7.258 3.766 12.529 7.088 17.176 2.93 4.096 5.698 7.967 5.698 12.736v4.249c0 8.223 6.691 14.917 14.917 14.917 8.225 0 14.916-6.694 14.916-14.917v-4.262c0-4.767 2.739-8.635 5.64-12.731 3.288-4.648 7.017-9.91 7.017-17.168-.003-15.239-12.4-27.636-27.64-27.636zm0 4.262c12.888 0 23.374 10.486 23.374 23.374 0 5.9-3.026 10.176-6.231 14.704-2.781 3.927-5.643 7.974-6.289 13.064h-21.579c-.655-5.099-3.547-9.145-6.356-13.072-3.235-4.526-6.293-8.804-6.293-14.696 0-12.888 10.486-23.374 23.374-23.374zm-8.457 21.309c-.545 0-1.09.208-1.507.625a2.129 2.129 0 000 3.013l4.262 4.262a2.128 2.128 0 003.013 0 2.129 2.129 0 000-3.013l-4.262-4.262a2.12 2.12 0 00-1.506-.625zm17.047 0a2.12 2.12 0 00-1.506.625l-8.524 8.523c-.401.399-.624.94-.624 1.507v12.786a2.13 2.13 0 104.261 0v-11.904l7.9-7.899a2.129 2.129 0 000-3.013 2.124 2.124 0 00-1.507-.625zm2.131 34.095v2.131c0 5.875-4.779 10.655-10.654 10.655s-10.655-4.78-10.655-10.655v-2.118zm-41.99 11.346a27.666 27.666 0 00-3.866.183l-25.214 2.959a6.396 6.396 0 00-5.643 6.347v26.982c0 1.982.893 3.817 2.455 5.036a6.331 6.331 0 005.486 1.166l13.984-3.492a14.908 14.908 0 0110.567 1.269l26.824 14.126a19.167 19.167 0 0017.763.058l45.395-23.536a9.948 9.948 0 005.382-8.869 9.913 9.913 0 00-3.867-7.887 9.918 9.918 0 00-8.607-1.765l-28.576 7.409a10.648 10.648 0 00-2.834-4.4 10.688 10.688 0 00-8.025-2.826l-4.669.338a10.764 10.764 0 01-5.311-.995l-20.052-9.46a27.657 27.657 0 00-11.192-2.643zm-.096 4.253c3.266.074 6.49.833 9.469 2.24l20.052 9.46a14.825 14.825 0 007.438 1.39l4.669-.337c1.792-.111 3.501.477 4.816 1.698a6.329 6.329 0 012.035 4.682v.866c0 .839-.492 1.6-1.257 1.943l-6.285 2.826a19.29 19.29 0 01-14.987.312l-10.75-4.303a2.133 2.133 0 10-1.582 3.962l10.746 4.299c5.867 2.351 12.545 2.211 18.317-.378l6.285-2.826a6.406 6.406 0 003.775-5.835l29.08-7.554a5.696 5.696 0 014.931 1.015 5.682 5.682 0 012.215 4.533 5.69 5.69 0 01-3.08 5.069l-45.395 23.536a14.934 14.934 0 01-13.818-.042l-26.824-14.13a19.126 19.126 0 00-13.58-1.631l-13.984 3.492a2.115 2.115 0 01-1.832-.392 2.109 2.109 0 01-.819-1.677v-26.982c0-1.08.809-1.988 1.881-2.114l25.213-2.963a23.436 23.436 0 013.271-.159zm-23.973 5.711a2.13 2.13 0 100 4.261h4.262a2.13 2.13 0 100-4.261zm0 10.654a2.13 2.13 0 100 4.262h4.262a2.13 2.13 0 100-4.262zm0 10.655a2.13 2.13 0 100 4.262h4.262a2.13 2.13 0 100-4.262z"/></g><circle cx="252.924" cy="217.336" r="129.181" fill="none" stroke="#000" stroke-linecap="round" stroke-miterlimit="1.5" stroke-width="8.5"/><circle cx="851.387" cy="217.336" r="129.181" fill="#c2f4fe"/><g clip-path="url(#f)"><g clip-path="url(#g)"><path fill-rule="nonzero" d="M877.942 167.188c-2.797.161-5.55.847-8.143 2.143l-15.085 7.371h-42.855l-24.342-5.914a2.795 2.795 0 00-1.114-.085 2.731 2.731 0 00-2.4 2.592 2.738 2.738 0 002.143 2.807l24.685 6 .342.086h32.313l-23.313 11.399c-.096.043-.161.129-.257.172-3.621 1.596-4.575 6.546-1.886 9.428l-.085.085c.042.043.128.043.171.086 8.164 8.946 21.095 11.914 32.484 7.457h.086l16.113-6.257 33.256 33.341c2.518 2.518 2.518 6.482 0 9s-6.482 2.518-9 0a2.753 2.753 0 00-3.664.193 2.755 2.755 0 00-.193 3.664 6.407 6.407 0 010 9.085c-2.517 2.518-6.481 2.518-8.999 0l-1.971-1.971a2.754 2.754 0 00-3.665.193 2.754 2.754 0 00-.192 3.664 6.41 6.41 0 010 9.085c-2.518 2.518-6.482 2.518-9 0l-1.886-1.971c-1.06-1.093-2.807-1.104-3.899-.043-1.093 1.061-1.104 2.807-.043 3.9a6.41 6.41 0 010 9.085c-2.518 2.518-6.482 2.518-9 0l-3.428-3.428 2.057-2.057c4.017-4.018 4.017-10.554 0-14.571-2.004-2.004-4.65-3-7.286-3h-.085c.043-2.7-.954-5.411-3-7.457-2.004-2.003-4.65-3-7.286-3-.139 0-.289-.01-.428 0 .086-2.753-.9-5.528-3-7.628-2.003-2.003-4.65-3.085-7.285-3.085-.14 0-.29-.011-.429 0 .086-2.754-.9-5.529-3-7.629-2.003-2.003-4.65-3-7.285-3-2.636 0-5.282.997-7.285 3l-2.486 2.486-11.057-1.886a2.785 2.785 0 00-.514-.085 2.752 2.752 0 00-2.914 2.571 2.752 2.752 0 002.571 2.914l9 1.629c-.814 3.374.032 7.06 2.657 9.685a10.263 10.263 0 007.714 3 10.259 10.259 0 003 7.714 10.258 10.258 0 007.713 2.999c-.085 2.754.9 5.529 3 7.629 2.047 2.046 4.757 3.042 7.457 2.999-.064 2.711.9 5.443 2.914 7.457l.086.086c2.861 2.796 6.975 3.536 10.542 2.314l4.2 4.2c4.607 4.607 12.192 4.607 16.799 0 2.24-2.239 3.279-5.196 3.343-8.143 3.964 1.05 8.314.258 11.4-2.828 2.239-2.239 3.364-5.196 3.428-8.142 3.953 1.039 8.314.257 11.399-2.829 2.636-2.635 3.632-6.225 3.257-9.685 3.461.386 7.05-.622 9.686-3.257 2.946-2.946 3.996-7.082 3.171-10.885l1.628-1.629 10.114-1.457a2.781 2.781 0 002.314-3.171 2.78 2.78 0 00-3.171-2.314l-10.971 1.714-.857.086-1.628 1.628c-.193-.225-.386-.471-.6-.686l-33.77-33.769a2.593 2.593 0 00-.429-.343l-.085-.086a2.755 2.755 0 00-3.257-1.029l-17.828 6.857c-9.375 3.707-19.928 1.297-26.57-6.085l-.086-.086c-.354-.353-.375-.6.086-.771h.171l.086-.086 33.855-16.542a2.764 2.764 0 001.543-.771l14.485-7.114h.086c5.057-2.529 10.96-2.015 15.599 1.114l1.029 1.2.257.343.343.171c4.981 3.429 10.981 4.339 16.627 2.829v.085l.172-.085 12.771-2.657a2.769 2.769 0 002.1-3.3 2.768 2.768 0 00-3.3-2.1l-12.857 2.743-.086.085h-.085c-4.093 1.136-8.314.386-12-2.057l-1.028-1.2-.257-.257-.343-.257c-3.15-2.207-6.75-3.407-10.457-3.686a22.807 22.807 0 00-2.828 0zm-69.854 65.054c1.2 0 2.421.536 3.428 1.543 2.014 2.014 2.014 4.843 0 6.857l-2.142 2.057-.258.257-.342.429c-2.015 2.014-4.843 2.014-6.857 0-1.65-1.65-1.897-3.814-.857-5.657a2.79 2.79 0 001.028-1.371l2.229-2.143.342-.429c1.008-1.007 2.229-1.543 3.429-1.543zm10.714 10.714c1.2 0 2.421.536 3.428 1.543 2.014 2.014 2.014 4.757 0 6.771l-2.743 2.743c-2.014 2.014-4.842 2.014-6.856 0-2.015-2.014-2.015-4.757 0-6.771l2.742-2.743c1.007-1.007 2.229-1.543 3.429-1.543zm10.713 10.714c1.2 0 2.336.536 3.343 1.543 1.661 1.66 1.939 3.825.857 5.657-.375.278-.771.514-1.114.857l-2.743 2.743v.085h-.085c-.3.332-.525.675-.772 1.029-1.832 1.082-3.996.803-5.657-.857-2.014-2.015-2.014-4.757 0-6.771l2.057-2.143.515-.429.171-.171c1.007-1.007 2.228-1.543 3.428-1.543zm10.371 10.457c1.2 0 2.422.45 3.429 1.457 2.014 2.014 2.014 4.842 0 6.857l-2.743 2.742c-.236.236-.428.504-.686.686-.021.011-.064-.011-.085 0-1.918 1.328-4.318 1.082-6.086-.686-1.296-1.296-1.596-3.889-.685-5.828.342-.268.717-.461 1.028-.771l2.743-2.743c.364-.364.643-.793.943-1.2a4.806 4.806 0 012.142-.514z"/></g></g><circle cx="851.387" cy="217.336" r="129.181" fill="none" stroke="#000" stroke-linecap="round" stroke-miterlimit="1.5" stroke-width="8.5"/><g fill-rule="nonzero"><path fill="#baf2fe" d="M294.991 380.067c-1.922.136-3.803.627-5.521 1.5-3.572 1.827-5.835 5.248-7.103 9.202-1.281 3.953-1.718 8.575-1.622 13.728.109 6.108 1.036 13.006 2.536 20.217-5.74 1.077-11.002 2.454-15.664 4.104-6.231 2.195-11.411 4.867-15.269 8.166-3.858 3.285-6.476 7.416-6.721 12.106-.259 4.867 2.467 9.175 6.135 12.774 3.681 3.585 8.52 6.612 13.755 8.656a3.475 3.475 0 003.49-.504 3.513 3.513 0 001.282-3.285 3.526 3.526 0 00-2.236-2.727c-4.39-1.704-8.562-4.335-11.411-7.13-2.835-2.795-4.144-5.603-4.035-7.43.123-2.345 1.377-4.689 4.281-7.157 2.89-2.481 7.361-4.894 13.046-6.884 4.322-1.527 9.352-2.836 14.914-3.859a197.073 197.073 0 005.917 19.182c-11.261 20.231-17.232 38.171-17 51.491.136 8.193 3.067 14.941 8.561 18.513 3.749 2.427 8.262 3.34 12.965 2.386 4.703-.955 9.625-3.518 15.391-7.648a3.472 3.472 0 001.514-3.19 3.465 3.465 0 00-2.045-2.863 3.453 3.453 0 00-3.504.381c-5.358 3.804-9.556 5.835-12.746 6.49-3.191.64-5.331.177-7.758-1.418-3.094-2.004-5.289-6.121-5.398-12.76-.177-10.089 4.335-25.289 13.36-42.821a169.042 169.042 0 003.694 8.289c9.312 19.563 21.036 35.581 32.46 46.038 5.712 5.221 11.343 9.065 16.768 11.192 5.426 2.127 10.893 2.563 15.501.218l.191-.109.177-.109c3.912-2.645 6.339-7.021 7.662-12.269 1.308-5.235 1.595-11.466.981-18.486-1.213-14.028-6.026-31.219-14.342-49.201a3.48 3.48 0 00-4.635-1.69 3.48 3.48 0 00-1.69 4.635c8.016 17.354 12.596 33.945 13.714 46.869.559 6.462.246 11.997-.804 16.169-1.022 4.048-2.686 6.611-4.621 8.016-2.304 1.077-5.413 1.104-9.584-.546-4.254-1.677-9.339-5.03-14.615-9.856-10.538-9.639-21.894-25.044-30.878-43.87-2.004-4.24-3.872-8.725-5.616-13.292 2.126-3.722 4.376-7.512 6.884-11.384a197.405 197.405 0 017.675-10.974c.873-.014 1.745-.055 2.631-.055 3.749-.013 7.607.096 11.534.3 20.899 1.091 39.671 5.099 52.813 10.579 6.585 2.741 11.738 5.862 14.996 8.943s4.526 5.876 4.403 8.453c-.136 2.358-1.213 4.649-3.68 7.048-2.482 2.399-6.353 4.785-11.534 6.789-1.213.423-2.113 1.459-2.317 2.727a3.467 3.467 0 001.295 3.34 3.51 3.51 0 003.531.449c5.807-2.263 10.483-4.989 13.891-8.288 3.395-3.313 5.549-7.348 5.781-11.711.259-5.167-2.4-9.924-6.585-13.892-4.171-3.953-9.993-7.348-17.082-10.306-14.205-5.917-33.591-9.979-55.158-11.097-3.054-.164-6.039-.204-9.025-.245 5.753-6.967 11.615-13.033 17.246-17.9 10.047-8.643 19.495-13.36 25.37-13.578h.014c2.181-.082 3.817.354 5.18 1.227 4.417 2.876 8.125 10.579 2.1 21.512a3.486 3.486 0 00-.027 3.585 3.48 3.48 0 003.121 1.732 3.53 3.53 0 003.013-1.936c7.362-13.36 3.395-25.684-4.403-30.742h-.014c-2.699-1.759-5.93-2.481-9.229-2.358h-.014c-8.929.34-19.004 6.093-29.665 15.268-7.184 6.203-14.573 14.097-21.676 23.244-6.789.218-13.264.75-19.304 1.582-1.486-7.008-2.413-13.62-2.508-19.209-.082-4.676.368-8.643 1.281-11.479.914-2.822 2.141-4.349 3.627-5.112.872-.436 1.786-.695 2.876-.777 3.572-.273 10.579 3.558 17.9 9.638a3.483 3.483 0 003.463.614 3.46 3.46 0 002.249-2.7 3.51 3.51 0 00-1.24-3.285c-7.717-6.394-15.119-11.806-22.89-11.22zm9.161 49.187a223.408 223.408 0 00-4.648 6.857c-1.445 2.223-2.754 4.417-4.09 6.612a195.474 195.474 0 01-3.586-12.269c3.927-.532 8.044-.927 12.324-1.2zm21.963 13.578c-5.781 0-10.47 4.69-10.47 10.47 0 5.781 4.689 10.47 10.47 10.47 5.78 0 10.47-4.689 10.47-10.47 0-5.78-4.69-10.47-10.47-10.47zm452.841-62.765c-1.922.136-3.803.627-5.521 1.5-3.572 1.827-5.835 5.248-7.103 9.202-1.281 3.953-1.717 8.575-1.622 13.728.109 6.108 1.036 13.006 2.536 20.217-5.74 1.077-11.002 2.454-15.664 4.104-6.23 2.195-11.411 4.867-15.269 8.166-3.858 3.285-6.475 7.416-6.721 12.106-.259 4.867 2.468 9.175 6.135 12.774 3.681 3.585 8.52 6.612 13.755 8.656a3.475 3.475 0 003.49-.504 3.511 3.511 0 001.282-3.285 3.526 3.526 0 00-2.236-2.727c-4.39-1.704-8.561-4.335-11.411-7.13-2.835-2.795-4.144-5.603-4.035-7.43.123-2.345 1.377-4.689 4.281-7.157 2.89-2.481 7.361-4.894 13.046-6.884 4.322-1.527 9.352-2.836 14.915-3.859a196.788 196.788 0 005.916 19.182c-11.26 20.231-17.232 38.171-17 51.491.136 8.193 3.068 14.941 8.562 18.513 3.749 2.427 8.261 3.34 12.964 2.386 4.704-.955 9.625-3.518 15.392-7.648a3.474 3.474 0 001.513-3.19 3.465 3.465 0 00-2.045-2.863 3.453 3.453 0 00-3.504.381c-5.357 3.804-9.556 5.835-12.746 6.49-3.19.64-5.331.177-7.757-1.418-3.095-2.004-5.29-6.121-5.399-12.76-.177-10.089 4.335-25.289 13.36-42.821 1.173 2.822 2.4 5.59 3.695 8.289 9.311 19.563 21.035 35.581 32.459 46.038 5.712 5.221 11.343 9.065 16.769 11.192 5.425 2.127 10.892 2.563 15.5.218l.191-.109.177-.109c3.913-2.645 6.339-7.021 7.662-12.269 1.308-5.235 1.595-11.466.981-18.486-1.213-14.028-6.025-31.219-14.341-49.201a3.48 3.48 0 00-4.636-1.69 3.48 3.48 0 00-1.69 4.635c8.016 17.354 12.597 33.945 13.715 46.869.559 6.462.245 11.997-.805 16.169-1.022 4.048-2.685 6.611-4.621 8.016-2.304 1.077-5.412 1.104-9.584-.546-4.254-1.677-9.339-5.03-14.614-9.856-10.539-9.639-21.895-25.044-30.879-43.87-2.004-4.24-3.871-8.725-5.616-13.292 2.126-3.722 4.376-7.512 6.884-11.384a197.405 197.405 0 017.675-10.974c.873-.014 1.745-.055 2.632-.055 3.749-.013 7.607.096 11.533.3 20.899 1.091 39.671 5.099 52.813 10.579 6.585 2.741 11.738 5.862 14.996 8.943s4.526 5.876 4.404 8.453c-.137 2.358-1.214 4.649-3.681 7.048-2.481 2.399-6.353 4.785-11.534 6.789-1.213.423-2.113 1.459-2.317 2.727a3.47 3.47 0 001.295 3.34 3.51 3.51 0 003.531.449c5.807-2.263 10.483-4.989 13.892-8.288 3.394-3.313 5.548-7.348 5.78-11.711.259-5.167-2.399-9.924-6.585-13.892-4.171-3.953-9.992-7.348-17.082-10.306-14.205-5.917-33.591-9.979-55.158-11.097-3.053-.164-6.039-.204-9.025-.245 5.754-6.967 11.616-13.033 17.246-17.9 10.047-8.643 19.495-13.36 25.37-13.578h.014c2.181-.082 3.817.354 5.181 1.227 4.417 2.876 8.125 10.579 2.099 21.512a3.486 3.486 0 00-.027 3.585 3.48 3.48 0 003.122 1.732 3.53 3.53 0 003.012-1.936c7.362-13.36 3.395-25.684-4.403-30.742h-.014c-2.699-1.759-5.93-2.481-9.229-2.358h-.014c-8.929.34-19.004 6.093-29.664 15.268-7.185 6.203-14.574 14.097-21.677 23.244-6.789.218-13.264.75-19.303 1.582-1.486-7.008-2.413-13.62-2.509-19.209-.082-4.676.368-8.643 1.282-11.479.913-2.822 2.14-4.349 3.626-5.112.872-.436 1.786-.695 2.876-.777 3.572-.273 10.579 3.558 17.9 9.638a3.484 3.484 0 003.463.614 3.46 3.46 0 002.249-2.7 3.508 3.508 0 00-1.24-3.285c-7.716-6.394-15.119-11.806-22.89-11.22zm9.162 49.187a223.421 223.421 0 00-4.649 6.857c-1.445 2.223-2.754 4.417-4.09 6.612a195.457 195.457 0 01-3.585-12.269c3.926-.532 8.043-.927 12.324-1.2zm21.962 13.578c-5.78 0-10.47 4.69-10.47 10.47 0 5.781 4.69 10.47 10.47 10.47s10.47-4.689 10.47-10.47c0-5.78-4.69-10.47-10.47-10.47z"/><path fill="#fff" d="M1227.11 391.597c1.661 0 3.314.299 4.962.895a13.736 13.736 0 014.437 2.627c1.31 1.155 2.367 2.562 3.171 4.223.805 1.66 1.207 3.541 1.207 5.643 0 2.517-.558 4.67-1.674 6.46-1.115 1.79-2.568 3.14-4.358 4.048l-2.297-3.425c.831-.389 1.531-.856 2.102-1.401a6.828 6.828 0 001.362-1.79 7.734 7.734 0 00.72-2.024c.143-.701.214-1.375.214-2.024 0-1.453-.292-2.724-.876-3.814a8.454 8.454 0 00-2.315-2.743 10.33 10.33 0 00-3.23-1.674 11.862 11.862 0 00-3.581-.564c-1.349 0-2.633.22-3.852.661a10.463 10.463 0 00-3.231 1.849 9.074 9.074 0 00-2.237 2.822c-.558 1.089-.837 2.283-.837 3.58 0 .675.084 1.369.253 2.082.169.714.441 1.401.817 2.063.376.661.85 1.271 1.421 1.829a7.075 7.075 0 002.062 1.381l-2.062 3.62a8.448 8.448 0 01-2.744-1.868 11.948 11.948 0 01-2.004-2.725 13.98 13.98 0 01-1.246-3.21 13.563 13.563 0 01-.428-3.328c0-1.946.415-3.723 1.246-5.331a14.003 14.003 0 013.249-4.165 14.984 14.984 0 014.554-2.724 14.47 14.47 0 015.195-.973zm-14.2 41.525c0-1.972.396-3.768 1.187-5.39a13.44 13.44 0 013.152-4.184 14.25 14.25 0 014.495-2.704 14.56 14.56 0 015.176-.954c1.843 0 3.607.338 5.293 1.012a14.698 14.698 0 014.476 2.783 13.294 13.294 0 013.094 4.203c.765 1.621 1.148 3.392 1.148 5.312 0 1.972-.409 3.769-1.226 5.39a13.553 13.553 0 01-3.211 4.164 14.728 14.728 0 01-4.495 2.686 14.314 14.314 0 01-5.117.953c-1.843 0-3.607-.331-5.293-.992a13.982 13.982 0 01-4.456-2.783 13.66 13.66 0 01-3.075-4.223c-.765-1.621-1.148-3.379-1.148-5.273zm14.01-8.795c-1.297 0-2.555.207-3.775.623a10.267 10.267 0 00-3.23 1.77 8.647 8.647 0 00-2.237 2.783c-.558 1.09-.837 2.309-.837 3.658 0 1.401.292 2.64.875 3.717a8.749 8.749 0 002.316 2.743c.96.753 2.037 1.324 3.23 1.713 1.194.389 2.413.584 3.658.584 1.324 0 2.588-.208 3.795-.623a10.072 10.072 0 003.191-1.771 8.823 8.823 0 002.218-2.763c.558-1.077.837-2.277.837-3.6 0-1.401-.292-2.646-.876-3.736a8.883 8.883 0 00-2.276-2.763 10.197 10.197 0 00-3.211-1.732 11.56 11.56 0 00-3.678-.603zm-13.82 51.76h19.887l-15.061-8.212v-2.412l15.061-8.251H1213.1v-4.359h27.631v4.67l-16.89 9.146 16.89 9.146v4.67H1213.1zm0 12.57h27.631v11.598c0 1.245-.259 2.393-.778 3.444a8.823 8.823 0 01-2.043 2.705 9.657 9.657 0 01-2.88 1.77 8.816 8.816 0 01-3.289.643 9.526 9.526 0 01-3.366-.604 9.404 9.404 0 01-2.88-1.693 8.247 8.247 0 01-2.024-2.626c-.506-1.025-.759-2.16-.759-3.406v-7.472h-9.612zm13.465 4.359v7.2c0 .623.13 1.187.389 1.693.26.506.623.94 1.09 1.303a5.43 5.43 0 001.635.857c.622.207 1.31.311 2.062.311.779 0 1.479-.117 2.102-.35a4.945 4.945 0 001.615-.973 4.456 4.456 0 001.051-1.421 3.897 3.897 0 00.369-1.654v-6.966zm-9.725 33.352c0 1.453.285 2.66.856 3.62a6.833 6.833 0 002.238 2.315c.921.584 1.972.999 3.152 1.246 1.181.246 2.394.369 3.639.369h14.01v4.398h-14.01c-1.894 0-3.678-.221-5.351-.662-1.674-.441-3.14-1.141-4.398-2.101s-2.251-2.199-2.977-3.717c-.727-1.518-1.09-3.34-1.09-5.468 0-2.205.383-4.067 1.148-5.584.766-1.518 1.79-2.744 3.075-3.678 1.284-.934 2.756-1.609 4.417-2.024a21.266 21.266 0 015.176-.622h14.01v4.358h-14.01c-1.271 0-2.497.124-3.678.37-1.18.247-2.231.662-3.152 1.245a6.608 6.608 0 00-2.218 2.335c-.558.973-.837 2.173-.837 3.6zm20.04 39.969v-9.185h-23.778v-4.398h23.778v-9.223h3.853v22.806zm-19.92 24.595h-3.853V571.98h27.631v18.602h-3.853v-14.244h-7.861v12.337h-3.619v-12.337h-8.445zM791.472 49.129v3.802h-18.701V25.667h18.355v3.802h-14.054v7.756h12.173v3.572h-12.173v8.332zm10.675-15.398v19.2h-4.301V25.667h3.38l15.59 19.661V25.705h4.339v27.226h-3.571zm46.157 15.821c-2.304 2.381-4.954 3.571-7.949 3.571-1.817 0-3.507-.378-5.069-1.133a13.092 13.092 0 01-4.07-3.053c-1.152-1.28-2.054-2.764-2.707-4.454a14.574 14.574 0 01-.979-5.299c0-1.843.326-3.597.979-5.261s1.555-3.123 2.707-4.378a12.753 12.753 0 014.109-2.976c1.587-.729 3.315-1.094 5.184-1.094 2.611 0 4.8.544 6.566 1.632 1.767 1.088 3.098 2.528 3.994 4.32l-3.303 2.381c-.742-1.485-1.766-2.599-3.072-3.341-1.305-.742-2.739-1.114-4.3-1.114-1.28 0-2.445.276-3.495.826a8.582 8.582 0 00-2.688 2.189c-.742.909-1.312 1.965-1.709 3.168a11.956 11.956 0 00-.595 3.763c0 1.382.224 2.675.672 3.878.448 1.204 1.063 2.253 1.843 3.149a8.731 8.731 0 002.784 2.131 7.86 7.86 0 003.495.788c1.382 0 2.707-.32 3.974-.96s2.477-1.652 3.629-3.034v-2.918h-5.722v-3.188h9.332v13.786h-3.61zm18.47-23.885h3.764l10.752 27.264h-4.532l-2.88-7.411h-10.521l-2.842 7.411h-4.569zm6.26 16.666l-4.378-11.712-4.531 11.712zm31.641 7.219c-2.304 2.381-4.953 3.571-7.949 3.571-1.817 0-3.507-.378-5.068-1.133a13.085 13.085 0 01-4.071-3.053c-1.152-1.28-2.054-2.764-2.707-4.454a14.574 14.574 0 01-.979-5.299c0-1.843.326-3.597.979-5.261s1.555-3.123 2.707-4.378a12.753 12.753 0 014.109-2.976c1.587-.729 3.315-1.094 5.184-1.094 2.611 0 4.8.544 6.566 1.632 1.767 1.088 3.098 2.528 3.994 4.32l-3.302 2.381c-.743-1.485-1.767-2.599-3.072-3.341-1.306-.742-2.74-1.114-4.301-1.114-1.28 0-2.445.276-3.495.826a8.582 8.582 0 00-2.688 2.189c-.742.909-1.312 1.965-1.708 3.168a11.928 11.928 0 00-.596 3.763c0 1.382.224 2.675.672 3.878.448 1.204 1.063 2.253 1.844 3.149a8.71 8.71 0 002.784 2.131 7.856 7.856 0 003.494.788c1.382 0 2.707-.32 3.974-.96 1.268-.64 2.477-1.652 3.629-3.034v-2.918h-5.721v-3.188h9.331v13.786h-3.61zm29.146-.423v3.802H915.12V25.667h18.355v3.802h-14.054v7.756h12.173v3.572h-12.173v8.332zM143.984 25.59v27.264h-4.339V40.835h-13.748v12.019h-4.3V25.59h4.3v11.405h13.748V25.59zm10.061 0l7.526 13.671 7.603-13.671h4.723l-10.176 17.511v9.753h-4.3v-9.83l-10.1-17.434zm25.152 27.264V25.59h11.443c1.229 0 2.361.256 3.398.768a8.69 8.69 0 012.669 2.016 9.499 9.499 0 011.747 2.842 8.7 8.7 0 01.634 3.245 9.43 9.43 0 01-.595 3.321 9.294 9.294 0 01-1.671 2.842 8.149 8.149 0 01-2.592 1.997c-1.011.499-2.131.748-3.36.748h-7.373v9.485zm4.3-13.286h7.104c.615 0 1.172-.128 1.671-.384a3.838 3.838 0 001.286-1.075c.359-.461.64-.999.845-1.613a6.404 6.404 0 00.307-2.035c0-.768-.115-1.46-.345-2.074a4.89 4.89 0 00-.96-1.594 4.387 4.387 0 00-1.402-1.036 3.83 3.83 0 00-1.632-.365h-6.874zm32.871 13.478c-1.946 0-3.719-.39-5.319-1.171a13.265 13.265 0 01-4.128-3.11 14.052 14.052 0 01-2.668-4.436 14.351 14.351 0 01-.941-5.107c0-1.817.333-3.558.998-5.222a14.503 14.503 0 012.746-4.416 13.113 13.113 0 014.147-3.053c1.6-.755 3.347-1.133 5.242-1.133 1.945 0 3.718.403 5.318 1.21 1.6.806 2.97 1.862 4.109 3.168a14.533 14.533 0 012.649 4.435c.628 1.651.941 3.334.941 5.05 0 1.817-.326 3.558-.979 5.222a13.786 13.786 0 01-2.746 4.397 13.477 13.477 0 01-4.166 3.033c-1.6.756-3.334 1.133-5.203 1.133zm-8.679-13.824c0 1.28.205 2.522.615 3.725a10.11 10.11 0 001.747 3.187 8.52 8.52 0 002.746 2.208c1.075.551 2.278.826 3.609.826 1.383 0 2.605-.288 3.667-.864a8.634 8.634 0 002.708-2.285 10.306 10.306 0 001.689-3.187c.384-1.178.576-2.381.576-3.61 0-1.305-.205-2.553-.614-3.744a9.949 9.949 0 00-1.747-3.149 8.733 8.733 0 00-2.727-2.188c-1.062-.551-2.246-.826-3.552-.826-1.382 0-2.611.288-3.686.864a8.804 8.804 0 00-2.727 2.246 10.08 10.08 0 00-1.708 3.168 11.404 11.404 0 00-.596 3.629zm46.887-9.83h-9.063v23.462h-4.339V29.392h-9.101V25.59h22.503zm27.955-3.802v27.264h-4.339V40.835h-13.747v12.019h-4.301V25.59h4.301v11.405h13.747V25.59zm26.765 23.463v3.801h-18.701V25.59h18.355v3.802h-14.054v7.757h12.173v3.571h-12.173v8.333zm21.926-17.05c-.256-.282-.627-.582-1.113-.902a11.197 11.197 0 00-1.709-.903 12.5 12.5 0 00-2.151-.691c-.78-.179-1.58-.269-2.4-.269-1.817 0-3.155.333-4.012.999-.858.665-1.287 1.587-1.287 2.764 0 .666.135 1.21.403 1.632.269.423.685.794 1.248 1.114.564.32 1.268.602 2.112.845.845.243 1.831.505 2.957.787 1.383.333 2.631.704 3.744 1.114 1.114.409 2.055.908 2.823 1.497a6.09 6.09 0 011.785 2.17c.423.857.634 1.901.634 3.129 0 1.383-.263 2.573-.787 3.572a6.706 6.706 0 01-2.151 2.438c-.909.627-1.965 1.088-3.168 1.382-1.203.295-2.496.442-3.878.442-2.074 0-4.077-.314-6.01-.941a17.214 17.214 0 01-5.241-2.745l1.958-3.687c.333.333.813.704 1.44 1.114.627.409 1.357.787 2.189 1.133.832.345 1.734.64 2.707.883s1.984.365 3.034.365c1.689 0 2.995-.295 3.916-.884.922-.588 1.383-1.459 1.383-2.611 0-.691-.173-1.267-.519-1.728-.345-.461-.838-.864-1.478-1.209-.64-.346-1.421-.66-2.342-.941a79.366 79.366 0 00-3.149-.883c-1.357-.359-2.541-.736-3.552-1.133s-1.85-.877-2.515-1.44a5.643 5.643 0 01-1.517-1.978c-.346-.755-.519-1.67-.519-2.745 0-1.332.256-2.516.768-3.552a7.596 7.596 0 012.093-2.612c.883-.704 1.927-1.235 3.13-1.593 1.203-.359 2.509-.538 3.917-.538 1.843 0 3.545.295 5.107.883 1.561.589 2.931 1.319 4.109 2.189zm9.255-6.413h4.301v27.264h-4.301zm10.483 23.962l16.55-20.16h-16.166V25.59h21.197v3.303l-16.167 20.16h16.205v3.801H350.96zm46.656-.499v3.801h-18.701V25.59h18.355v3.802h-14.054v7.757h12.173v3.571h-12.173v8.333zM216.063 876.45v-27.264h4.301v23.462h14.63v3.802zm43.046-3.802v3.802h-18.7v-27.264h18.355v3.802h-14.055v7.756h12.173v3.572h-12.173v8.332zm14.4-23.462h3.764l10.752 27.264h-4.532l-2.88-7.411h-10.521l-2.842 7.411h-4.569zm6.26 16.666l-4.378-11.712-4.531 11.712zm13.555 10.598v-27.264h11.865c1.229 0 2.362.256 3.399.768a8.702 8.702 0 012.669 2.016 9.519 9.519 0 011.747 2.842 8.718 8.718 0 01.633 3.244c0 .922-.128 1.805-.384 2.65a9.263 9.263 0 01-1.075 2.342 7.578 7.578 0 01-1.689 1.863 6.97 6.97 0 01-2.189 1.171l6.413 10.368h-4.877l-5.914-9.485h-6.297v9.485zm4.301-13.286h7.526c.614 0 1.171-.135 1.67-.404.5-.268.928-.64 1.287-1.113.358-.474.64-1.018.845-1.632a6.178 6.178 0 00.307-1.959c0-.691-.122-1.344-.365-1.958a5.614 5.614 0 00-.96-1.613 4.558 4.558 0 00-1.382-1.094 3.535 3.535 0 00-1.632-.403h-7.296zm27.302-5.914v19.2h-4.301v-27.264h3.379l15.591 19.661v-19.623h4.339v27.226h-3.571zm367.934-8.064h3.763l10.752 27.264h-4.531l-2.88-7.411h-10.522l-2.841 7.411h-4.57zm6.259 16.666l-4.378-11.712-4.531 11.712zm17.856-8.602v19.2h-4.301v-27.264h3.379l15.591 19.661v-19.623h4.339v27.226h-3.571zm35.098-8.064h3.763l10.752 27.264h-4.531l-2.88-7.411h-10.522l-2.842 7.411h-4.569zm6.259 16.666l-4.378-11.712-4.531 11.712zm13.555 10.598v-27.264h4.301v23.462h14.63v3.802zm21.696-27.264l7.526 13.67 7.604-13.67h4.723l-10.176 17.51v9.754h-4.301v-9.83l-10.099-17.434zm23.27 23.962l16.551-20.16h-16.167v-3.802h21.197v3.302l-16.166 20.16h16.205v3.802h-21.62zm46.656-.5v3.802h-18.7v-27.264h18.355v3.802H849.11v7.756h12.173v3.572H849.11v8.332z"/></g></svg>