<svg xmlns="http://www.w3.org/2000/svg"><svg xmlns="http://www.w3.org/2000/svg" xmlns:xlink="http://www.w3.org/1999/xlink" transform="matrix(.69 0 0 .69 15.5 15.5)" viewBox="0 0 68 68"><path d="M66 28.4H2c-.6 0-1 .4-1 1v9.5c0 .5.4 1 1 1h64c.5 0 1-.5 1-1v-9.5c0-.5-.4-1-1-1zm0-23.1h-3.4V2.1c0-.6-.5-1-1-1s-1 .4-1 1v3.1h-3.4c-.6 0-1 .4-1 1V11c0 .6.4 1 1 1h1c-2.2 6-18.6 6-20.8 0h1c.5 0 1-.4 1-1V6.3c0-.6-.5-1-1-1H35V2.1c0-.6-.5-1-1-1-.6 0-1 .4-1 1v3.1h-3.4c-.5 0-1 .4-1 1V11c0 .6.5 1 1 1h1c-2.2 6-18.6 6-20.8 0h1c.5 0 1-.4 1-1V6.3c0-.6-.5-1-1-1H7.4V2.1c0-.6-.5-1-1-1-.6 0-1 .4-1 1v3.1H2c-.6 0-1 .4-1 1V11c0 .6.4 1 1 1h1.2v14.3h6.5V15.2c1.5 1.3 3.6 2.4 6.2 2.9v8.3h2v-8c1.7.2 3.1.2 4.7 0v8h2v-8.3c2.6-.6 4.8-1.6 6.2-2.9v11.2h6.5V15.2c1.5 1.3 3.6 2.4 6.2 2.9v8.3h2v-8c1.7.2 3.1.2 4.7 0v8h2v-8.3c2.6-.6 4.8-1.6 6.2-2.9v11.2h6.5V12.1H66c.5 0 1-.4 1-1V6.3c0-.6-.4-1-1-1zM30.4 41.9v10.8h-2.6c-.6 0-1 .4-1 1v1.1h.8c1.7 0 3.4.7 5.1 2 2.6 2.1 2.8-2 7.7-2 .3 0 .6 0 .9.1v-1.1c0-.6-.5-1-1-1h-2.7V41.9zM7.1 56.8c2.5 2.1 2.8-2 7.7-2h.7v-1.1c0-.6-.5-1-1-1h-2.7V41.9H4.7v10.8H2c-.6 0-1 .4-1 1V55c.3-.1.6-.2 1-.2 2.7 0 4.2 1.2 5.1 2zM66 52.7h-2.7V41.9h-7.2v10.8h-2.6c-.6 0-1 .4-1 1v1.1h.7c1.7 0 3.5.7 5.1 2 1.1.9 1.6.9 2.7 0 .9-.7 2.4-1.9 5.1-1.9.3 0 .7.1 1 .2v-1.3c-.1-.7-.5-1.1-1.1-1.1z"/><path d="M66 56.8c-2 0-3 .8-3.8 1.5-1.8 1.4-3.3 1.4-5.2 0-2.5-2-5.1-2-7.7 0-1.8 1.4-3.3 1.5-5.2 0-2.5-2-5.1-2.1-7.6 0-1.8 1.4-3.3 1.5-5.2 0-2.5-2-5.1-2-7.6 0-1.8 1.4-3.3 1.5-5.1 0-2.5-2-5.1-2-7.6 0-1.8 1.4-3.3 1.4-5.1 0-.9-.6-2-1.5-3.9-1.5-.6 0-1 .4-1 1s.4 1 1 1c1.2 0 1.8.5 2.6 1.1 2.5 2 5.1 2 7.6 0 1.8-1.4 3.3-1.4 5.1 0 2.5 2 5.1 2 7.6 0 1.8-1.4 3.3-1.5 5.1 0 2.5 2 5.1 2.1 7.6 0 1.8-1.4 3.3-1.5 5.1 0 2.5 2 5.1 2.1 7.6 0 1.8-1.4 3.3-1.5 5.2 0 2.5 2 5.1 2.1 7.7 0 .7-.6 1.3-1.1 2.6-1.1.6 0 1-.4 1-1s-.2-1-.8-1zm-8.4 6.4c-1.5 0-2.3.5-2.9 1-1.2.8-2.3.9-3.6 0-1.9-1.3-3.9-1.3-5.9 0-1.2.8-2.3.9-3.6 0-1.9-1.3-3.9-1.3-5.8 0-1.3.9-2.3.9-3.6 0-1.9-1.3-3.9-1.3-5.8 0-1.3.9-2.3.9-3.6 0-1.9-1.3-3.9-1.3-5.8 0-1.3.9-2.3.9-3.6 0-.6-.4-1.4-1-2.9-1-.6 0-1 .4-1 1s.4 1 1 1c.9 0 1.3.3 1.8.6 1.9 1.3 3.9 1.3 5.8 0 2.9-2 3.4 1 6.5 1 1.5 0 2.3-.5 2.9-1 1.3-.9 2.3-.9 3.6 0 1.9 1.3 3.9 1.3 5.8 0 1.3-.9 2.3-.9 3.6 0 1.9 1.3 3.9 1.3 5.8 0 1.3-.9 2.3-.9 3.6 0 1.9 1.3 3.9 1.3 5.9 0 .5-.4.9-.6 1.8-.6.6 0 1-.4 1-1s-.4-1-1-1z"/></svg></svg>