<svg viewBox="0 0 100 100" xmlns="http://www.w3.org/2000/svg"><svg viewBox="0 0 100 85.031" xmlns="http://www.w3.org/2000/svg" xmlns:xlink="http://www.w3.org/1999/xlink"><path d="M40.797 12.497v.002l.021-.002c2.899 0 5.324 1.675 6.145 3.968a5.702 5.702 0 0 1 2.875-.796c1.042 0 2.024.297 2.899.81.817-2.299 3.246-3.981 6.15-3.981l.021.002v-.002h4.691c.071-.005.144-.007.217-.014-1.492-5.853-7.113-10.207-13.84-10.207-6.734 0-12.357 4.361-13.844 10.219h4.665zM98.815 53.447L76.674 20.993a6.134 6.134 0 0 0-.936-1.063c.578 1.41.903 2.95.903 4.565 0 4.299-2.269 8.07-5.663 10.206l7.093 10.396-9.557-3.24c-6.714-1.883-14.605-2.18-14.605-2.18 2.231-.816 4.18-2.299 5.628-4.244-3.932-1.825-6.725-5.699-6.983-10.25 0 0-.133-3.336-2.75-3.314-2.265.019-2.618 2.252-2.705 3.288-.002 4.744-2.717 8.188-6.712 10.154 1.467 2.015 3.461 3.547 5.753 4.375 0 0-8.507.229-14.76 2.171l-9.556 3.24 7.024-10.296c-3.486-2.117-5.828-5.939-5.828-10.306 0-1.465.276-2.862.756-4.162-.191.211-.389.417-.555.66L1.081 53.447a6.215 6.215 0 0 0 7.128 9.388l20.679-7.01v29.206h41.891V55.749l20.907 7.086a6.212 6.212 0 0 0 6.943-2.127 6.217 6.217 0 0 0 .186-7.261z"/><path d="M35.083 34.082c-5.286 0-9.587-4.299-9.587-9.586 0-5.286 4.301-9.587 9.587-9.587 5.287 0 9.589 4.301 9.589 9.587s-4.302 9.586-9.589 9.586zm0-14.226a4.644 4.644 0 0 0-4.639 4.639 4.645 4.645 0 0 0 4.639 4.639c2.559 0 4.641-2.082 4.641-4.639s-2.082-4.639-4.641-4.639zM64.581 34.082c-5.287 0-9.588-4.299-9.588-9.586 0-5.286 4.301-9.587 9.588-9.587 5.286 0 9.587 4.301 9.587 9.587s-4.301 9.586-9.587 9.586zm0-14.226a4.643 4.643 0 0 0-4.638 4.639 4.644 4.644 0 0 0 4.638 4.639c2.557 0 4.638-2.082 4.638-4.639s-2.081-4.639-4.638-4.639z"/></svg></svg>