<svg viewBox="0 0 50 50" xmlns="http://www.w3.org/2000/svg"><path d="M42.984 29.819A18.55 18.55 0 0 0 43.62 25c0-10.266-8.353-18.619-18.619-18.619a18.57 18.57 0 0 0-4.819.634C18.727 3.13 14.978.357 10.591.357 4.949.357.358 4.95.358 10.592c0 4.386 2.773 8.136 6.658 9.59A18.57 18.57 0 0 0 6.38 25c0 10.266 8.352 18.619 18.619 18.619 1.666 0 3.28-.221 4.818-.634 1.455 3.885 5.205 6.658 9.59 6.658 5.644 0 10.235-4.591 10.235-10.235 0-4.386-2.773-8.135-6.659-9.59zM21.11 7.579c-.212.136-.416.281-.612.433a9.385 9.385 0 0 0-.073-.263c.227-.06.455-.118.685-.17zM3.924 17.303a9.435 9.435 0 0 1-2.797-6.71c0-5.22 4.246-9.466 9.465-9.466s9.465 4.246 9.465 9.465c0 2.62-1.07 4.996-2.798 6.711v-2.657c0-2.186-1.844-4.35-4.46-4.72.836-.538 1.887-1.686 1.887-3.45a4.1 4.1 0 0 0-4.094-4.094 4.1 4.1 0 0 0-4.095 4.095c0 1.446.754 2.718 1.888 3.446-2.445.337-4.46 2.398-4.46 4.723v2.657zm5.18-6.658l2.975.001-1.487 1.788zm2.752 7.216l-1.264 1.094-1.265-1.094 1.265-4.282zm-1.265-8.06a3.33 3.33 0 0 1-3.325-3.324 3.329 3.329 0 0 1 3.326-3.324 3.328 3.328 0 0 1 3.324 3.324c0 1.78-1.432 3.325-3.325 3.325zm-4.064 4.761v4.576a9.505 9.505 0 0 1-1.832-1.149v-3.343c0-1.852 1.547-3.506 3.485-3.908l1.807 2.171-1.469 4.972a.386.386 0 0 0 .118.4l1.704 1.474c.146.126.36.124.504 0l1.704-1.473c.114-.1.16-.256.117-.4l-1.468-4.972 1.802-2.167c2.014.43 3.49 2.126 3.49 3.903v3.343a9.492 9.492 0 0 1-1.807 1.137v-4.564a.385.385 0 1 0-.77 0v4.893a9.471 9.471 0 0 1-6.615.01v-4.902a.385.385 0 0 0-.77 0zm4.065 6.264c1.365 0 2.667-.269 3.858-.755a31.17 31.17 0 0 0-.382 4.508H7.157c.033-1.433.239-2.824.592-4.154.903.261 1.857.401 2.843.401zm-3.436 4.522h6.911c.045 4.209.902 8.19 2.442 11.411a18.532 18.532 0 0 0-2.981 1.903c-3.813-3.207-6.27-7.977-6.372-13.314zm6.99 13.81a17.813 17.813 0 0 1 2.709-1.71c.626 1.187 2.008 3.528 4.255 4.973a17.775 17.775 0 0 1-6.965-3.263zm10.47 3.677c-2.791-.183-5.297-2.351-7.074-5.721a17.904 17.904 0 0 1 7.073-1.631zm0-8.123a18.668 18.668 0 0 0-7.42 1.713c-1.433-3.015-2.312-6.87-2.358-11.077h9.777zm0-10.133h-9.778c.023-1.704.184-3.347.462-4.9a10.305 10.305 0 0 0 4.473-4.566 18.61 18.61 0 0 0 4.843.747v8.719zm0-9.489a17.81 17.81 0 0 1-4.525-.689 10.243 10.243 0 0 0 .587-5.55c1.203-.998 2.533-1.593 3.937-1.686zM42.25 29.575a10.21 10.21 0 0 0-2.842-.401c-1.366 0-2.67.27-3.86.757.235-1.479.368-3.014.384-4.583h6.912a17.788 17.788 0 0 1-.594 4.227zm.593-4.996h-6.91c-.052-3.982-.831-7.758-2.228-10.875a18.581 18.581 0 0 0 3.11-2.069c3.6 3.186 5.909 7.798 6.028 12.944zm-6.625-13.451a17.8 17.8 0 0 1-2.841 1.878c-.459-.927-1.924-3.78-4.487-5.427 2.73.61 5.226 1.846 7.328 3.549zM25.385 7.165c2.917.192 5.522 2.55 7.31 6.185a17.86 17.86 0 0 1-7.31 1.74zm0 8.695c2.66-.055 5.264-.68 7.635-1.812 1.297 2.922 2.089 6.568 2.142 10.53h-9.777zm0 9.488h9.777c-.019 1.73-.18 3.398-.462 4.974a10.302 10.302 0 0 0-4.707 5.073 18.617 18.617 0 0 0-4.609-.683v-9.364zm0 10.135c1.47.032 2.925.25 4.33.636a10.194 10.194 0 0 0-.393 5.032c-1.202.997-2.534 1.592-3.937 1.684zm3.506 6.938c.212-.137.416-.28.612-.432.023.089.048.175.072.262-.226.06-.454.118-.684.17zm16.414 4.384a9.51 9.51 0 0 1-1.807 1.138v-4.565a.385.385 0 0 0-.77 0v4.893a9.463 9.463 0 0 1-6.615.01V43.38a.385.385 0 0 0-.77 0v4.576a9.498 9.498 0 0 1-1.832-1.15v-3.342c0-1.852 1.548-3.506 3.485-3.908l1.807 2.172-1.468 4.97a.387.387 0 0 0 .117.401l1.704 1.473c.147.127.36.124.504 0l1.704-1.473a.385.385 0 0 0 .118-.4l-1.469-4.971 1.802-2.167c2.014.43 3.49 2.126 3.49 3.903v3.342zm-4.41-7.343l-1.487 1.788-1.488-1.789zm-4.813-4.169a3.329 3.329 0 0 1 3.326-3.324 3.328 3.328 0 0 1 3.324 3.324c0 1.78-1.432 3.325-3.325 3.325a3.33 3.33 0 0 1-3.325-3.325zm4.591 11.384L39.41 47.77l-1.265-1.093 1.265-4.283zm5.403-.558v-2.656c0-2.187-1.845-4.351-4.46-4.72.835-.538 1.886-1.687 1.886-3.45a4.1 4.1 0 0 0-4.095-4.094 4.1 4.1 0 0 0-4.095 4.094c0 1.446.754 2.718 1.889 3.447-2.445.336-4.46 2.398-4.46 4.723v2.656a9.435 9.435 0 0 1-2.798-6.71c0-5.22 4.245-9.465 9.465-9.465 5.218 0 9.464 4.245 9.464 9.465a9.43 9.43 0 0 1-2.796 6.71z"/></svg>