<svg xmlns="http://www.w3.org/2000/svg" viewBox="0 0 100 100"><svg xmlns="http://www.w3.org/2000/svg" xmlns:xlink="http://www.w3.org/1999/xlink" viewBox="0 0 100 100"><path d="M21.564 54.621a3.41 3.41 0 003.663-3.135l.969-12.488 6.543-4.716v18.114c0 .911.247 1.761.642 2.51l-7.346 30.435a4.092 4.092 0 003.016 4.938c.325.077.647.111.966.111a4.091 4.091 0 003.974-3.129l6.998-29.003 7.953 3.792-.667 10.765a4.089 4.089 0 004.089 4.344 4.088 4.088 0 004.077-3.838l.842-13.521a4.08 4.08 0 00-2.323-3.943l-11.309-5.392V38.493l3.955 4.72a3.413 3.413 0 002.229 1.199l12.024 1.363a3.406 3.406 0 003.77-3.003 3.409 3.409 0 00-3.004-3.773l-10.67-1.208-8.69-10.375a5.46 5.46 0 00-1.119-1.761c-.456-1.763-2.043-3.071-3.948-3.071a4.082 4.082 0 00-3.398 1.812l-13.869 9.997a3.41 3.41 0 00-1.403 2.501l-1.092 14.062a3.399 3.399 0 003.128 3.665z"/><circle cx="41.753" cy="13.466" r="8.466"/><path d="M81.625 51.047L71.58 54.182l2.311 2.312-10.979 8.809c-.322.258-.512.65-.512 1.063v12.272H41.753c-.753 0-1.363.61-1.363 1.363v12.273H19.738a1.362 1.362 0 100 2.725h22.015c.752 0 1.363-.609 1.363-1.363V81.365h20.647c.754 0 1.363-.609 1.363-1.362V67.02l10.707-8.588 2.652 2.656z"/></svg></svg>