<svg xmlns="http://www.w3.org/2000/svg" viewBox="0 0 100 100"><svg xmlns="http://www.w3.org/2000/svg" xmlns:xlink="http://www.w3.org/1999/xlink" viewBox="0 0 100 100"><path d="M35.3 75.3h-.6L22.8 39.8c-2.7 2.6-6.4 4.3-10.5 4.3-1.1 0-2.2-.1-3.3-.4l10.6 31.6c-6.8.7-12.2 6.4-12.2 13.4 0 1.6 1.3 2.9 2.9 2.9h35.4c1.6 0 2.9-1.3 2.9-2.9.2-7.4-5.9-13.4-13.3-13.4zm-8.1-45.9c0 2.6-.7 5.1-2 7.3h25.9V22.4H25.4c1.1 2.1 1.8 4.5 1.8 7z"/><circle cx="12.4" cy="29.4" r="9.9"/><path d="M90.6 35.8l-11.8 4.5-8-6.5v-8.1l8-6.5 11.8 4.5c2.6 1 5.6-.3 6.6-2.9s-.3-5.6-2.9-6.6L79.7 8.7c-1.7-.6-3.6-.3-5 .8l-10.4 8.4h-5.5c-1.5 0-2.8 1.2-2.8 2.8v18.2c0 1.5 1.2 2.8 2.8 2.8h5.5l10.4 8.4c.9.7 2.1 1.1 3.2 1.1.6 0 1.2-.1 1.8-.3l14.5-5.6c2.6-1 3.9-3.9 2.9-6.6-.9-2.6-3.9-3.9-6.5-2.9z"/></svg></svg>