<svg xmlns="http://www.w3.org/2000/svg" viewBox="0 0 100 100"><svg xmlns="http://www.w3.org/2000/svg" xmlns:xlink="http://www.w3.org/1999/xlink" viewBox="0 0 100 100"><path d="M50.1 9.1c-1.7 0-3.1 1.4-3.1 3.1v35.6c-5.2 1.4-9.1 6.1-9.1 11.8S41.8 70 47 71.3v15.5c0 1.7 1.4 3.1 3.1 3.1s3.1-1.4 3.1-3.1V71.3c5.2-1.4 9.1-6.1 9.1-11.8 0-5.6-3.8-10.4-9.1-11.8V12.2c0-1.7-1.4-3.1-3.1-3.1zM56 59.6c0 3.3-2.7 5.9-5.9 5.9-3.3 0-5.9-2.7-5.9-5.9 0-3.3 2.7-5.9 5.9-5.9 3.3-.1 5.9 2.6 5.9 5.9zM22.9 9.1c-1.7 0-3.1 1.4-3.1 3.1v17c-5.2 1.4-9.1 6.1-9.1 11.8 0 5.6 3.8 10.4 9.1 11.8V86c0 1.7 1.4 3.1 3.1 3.1S26 87.7 26 86V52.7c5.2-1.4 9.1-6.1 9.1-11.8 0-5.6-3.8-10.4-9.1-11.8v-17c0-1.6-1.4-3-3.1-3zm5.9 31.8c0 3.3-2.7 5.9-5.9 5.9S17 44.1 17 40.9s2.6-5.9 5.8-5.9h.2c3.2 0 5.8 2.7 5.8 5.9zm48.3-30.8c-1.7 0-3.1 1.4-3.1 3.1v16c-5.2 1.4-9.1 6.1-9.1 11.8 0 5.6 3.8 10.4 9.1 11.8v35.1c0 1.7 1.4 3.1 3.1 3.1s3.1-1.4 3.1-3.1V52.7c5.2-1.4 9.1-6.1 9.1-11.8 0-5.6-3.8-10.4-9.1-11.8v-16c0-1.6-1.3-3-3.1-3zm6 30.8c0 3.3-2.7 5.9-5.9 5.9-3.3 0-5.9-2.7-5.9-5.9 0-3.3 2.7-5.9 5.9-5.9s5.9 2.6 5.9 5.9z"/></svg></svg>