<svg viewBox="0 0 100 75" xmlns="http://www.w3.org/2000/svg" xmlns:xlink="http://www.w3.org/1999/xlink"><linearGradient id="a" x1="5.387773%" x2="84.005492%" y1="100%" y2="-7.43321%"><stop offset="0" stop-color="#46e5f2"/><stop offset="1" stop-color="#9e66ff"/></linearGradient><g fill="url(#a)" opacity=".2"><path d="m45.9668696 11.7684078c-14.1528757 0-25.8766607 9.791621-27.7182132 22.4483143h-18.2486564v7.4080734h18.3106077c2.04839 12.4400072 13.6702551 22.0001258 27.6562619 22.0001258 15.4268744 0 27.9790083-11.6316012 27.9790083-25.9282567 0-14.2966556-12.5521339-25.9282568-27.9790083-25.9282568zm0 44.4484402c-11.0363253 0-19.9842921-8.2914861-19.9842921-18.5201834 0-10.2277713 8.9479668-18.5201834 19.9842921-18.5201834 11.0383238 0 19.9852914 8.2914861 19.9852914 18.5201834s-8.9469676 18.5201834-19.9852914 18.5201834z"/><path d="m100 34.266446h-13.656045c-1.7808755-19.167909-19.1866583-34.266446-40.3371793-34.266446-.0009999 0-.0019998 0-.0029997 0v7.4089613h.0029997c17.9487449 0 32.4987274 13.4759745 32.4987274 30.0989053s-14.5499825 30.0989053-32.4987274 30.0989053c-.0009999 0-.0019998 0-.0029997 0v7.4089613h.0029997c20.8095448 0 37.995343-14.6132501 40.2421859-33.3403259h13.7510384z"/><ellipse cx="45.97231" cy="37.161737" rx="11.988672" ry="11.107615"/></g></svg>