<svg viewBox="0 0 100 100" xmlns="http://www.w3.org/2000/svg"><svg viewBox="0 0 24 24" xmlns="http://www.w3.org/2000/svg" xmlns:xlink="http://www.w3.org/1999/xlink"><path d="M7.638 23.98l-.328-.017-7-2.875-.31-.463V.5L.69.038l6.839 2.809L17.362.02l.354.03 6 2.875.284.45V23.5l-.716.451-5.829-2.793zM1 20.29l6.529 2.682 9.833-2.827.354.029L23 22.706V3.69l-5.545-2.657-9.817 2.822-.328-.018L1 1.246z"/><path d="M5.001 17.516h-.5c-.173 0-.351-.005-.533-.017l-.498-.031.062-.998.499.031c.161.01.317.015.47.015h.5zM7.253 16.945l-.494-.869.435-.247c.265-.15.525-.329.774-.531l.389-.314.629.776-.388.315a6.706 6.706 0 0 1-.91.623zm3.181-2.85l-.822-.57.285-.411c.188-.272.373-.552.554-.837l.269-.422.844.537-.269.422c-.189.296-.38.587-.576.87zm2.212-3.457l-.833-.553.276-.417c.193-.292.392-.58.596-.859l.295-.404.807.59-.295.404c-.195.268-.385.542-.57.822zm2.449-3.05l-.602-.798.399-.301c.297-.223.605-.423.919-.594l.438-.239.479.878-.438.239a6.448 6.448 0 0 0-.796.515zM18.527 6.042l-.057-.998.499-.028c.173-.011.35-.016.531-.016h.5v1h-.5c-.161 0-.319.004-.474.013zM17 11.5h1v9.25h-1zM7 3.375h1v4.25H7zM7 19.5h1v4H7z"/></svg></svg>