<svg xmlns="http://www.w3.org/2000/svg" viewBox="0 0 100 100"><svg xmlns="http://www.w3.org/2000/svg" xmlns:xlink="http://www.w3.org/1999/xlink" viewBox="0 0 100 100"><path d="M1.2 47.9c-.9 1.3-.9 3 .1 4.3 14.9 18.4 31.1 27.7 48 27.7 28.7 0 48.6-26.7 49.4-27.8.9-1.3.9-3-.1-4.3-14.9-18.4-31.1-27.7-48-27.7C22 20.1 2.1 46.8 1.2 47.9zM91.4 50C86.3 56 70 72.9 49.3 72.9c-14 0-27.7-7.7-40.7-22.9 5.1-6 21.3-22.9 42.1-22.9 14 0 27.7 7.7 40.7 22.9zM50 33.1c1.9 0 3.5 1.6 3.5 3.5s-1.6 3.5-3.5 3.5c-5.5 0-9.9 4.5-9.9 9.9s4.5 9.9 9.9 9.9 9.9-4.5 9.9-9.9c0-1.9 1.6-3.5 3.5-3.5s3.5 1.6 3.5 3.5c0 9.3-7.6 16.9-16.9 16.9S33.1 59.3 33.1 50 40.7 33.1 50 33.1z"/></svg></svg>