<svg viewBox="0 0 50 50" xmlns="http://www.w3.org/2000/svg"><path d="M41 38a.997.997 0 0 1-.894-.553l-.503-1.006-.545-.511a.998.998 0 0 1-.316-.729v-.023l-.539-.715a1.003 1.003 0 0 1-.203-.604v-.445l-.64-.639-.246-.166-.738.312a1.003 1.003 0 0 1-.39.079h-2.572l-.707.707A.996.996 0 0 1 32 34h-1.345c-.204 0-.403-.063-.571-.179l-.262-.182-.235.171c-.171.123-.376.19-.587.19h-1.586L26 35.414V37a.997.997 0 0 1-.441.829.992.992 0 0 1-.934.098l-2.418-.979a1 1 0 0 1-.586-.65l-.28-.974L20.463 34H19a1 1 0 0 1-.47-.117l-1-.532a1.002 1.002 0 0 1-.53-.883v-.23l-1.47-1.445-.314-.021a.996.996 0 0 1-.965.383l-2.85-.483a1.008 1.008 0 0 1-.32-.112l-3.049-1.7a1 1 0 0 1-.325-.291l-.747-.07-.628-.112a1 1 0 0 1-.718-.547l-.782-1.615-1.233-.69a.999.999 0 0 1-.664-.608l-.082-.216c-.028-.068-.789-2.035-.853-6.697-.001-.108.018-1.433.018-1.433a.996.996 0 0 1 .391-.779c.01-.39.019-.955.025-1.473a.996.996 0 0 1 .283-.684L3 13.353V9.304a1 1 0 0 1 .827-.985l1.734-.304a1.03 1.03 0 0 1 .462.027l2.084.628 3.021.183 6.8 1.023 8.088.124c.26.004.508.109.691.293l.707.707H31a1 1 0 0 1 .957.711l2.179.298A1 1 0 0 1 35 13v1h1a1 1 0 0 1 1 1 1 1 0 0 1 1 1v1.383l.552-.276a.765.765 0 0 1 .102-.044l.386-1.339A.998.998 0 0 1 40 15h1v-1a1 1 0 0 1 .684-.949L44 12.279V12c0-.155.036-.309.105-.447l1-2c.17-.339.516-.553.895-.553h1a1 1 0 0 1 1 1v.586l.707.707A.997.997 0 0 1 49 12v.667a1 1 0 0 1-.445.832L47 14.535V15a1 1 0 0 1 1 1v1a1 1 0 0 1-.684.949l-2.306.769.018 1.163a1 1 0 0 1-.898 1.01l-.13.012v.683l.707.707A.997.997 0 0 1 45 23v2c0 .265-.105.52-.293.707l-3.716 3.716-.028 1.252.933 1.88c.069.14.105.294.104.451v.032l.86 1.452c.092.155.14.331.14.51v1c0 .265-.105.52-.293.707l-1 1A.998.998 0 0 1 41 38zm-17.592-2.723l.592.24V35c0-.265.105-.52.293-.707l2-2A.996.996 0 0 1 27 32h1.676l.548-.397a.997.997 0 0 1 1.158-.011l.587.408h.617l.707-.707A.996.996 0 0 1 33 31h2.783l1.052-.444c.313-.131.669-.097.949.092l.775.523a.907.907 0 0 1 .147.122l.654.654-.299-.603a1.005 1.005 0 0 1-.104-.466l.042-1.9a.997.997 0 0 1 .293-.685L43 24.586v-1.172l-.707-.707A.997.997 0 0 1 42 22v-2a1 1 0 0 1 .898-.995l.116-.012-.014-.978a1 1 0 0 1 .684-.964l1.485-.495A1 1 0 0 1 45 16v-1.946l-2 .667V16a1 1 0 0 1-1 1h-1.247l-.368 1.277a1 1 0 0 1-.961.723h-.187l-1.781.894a1.008 1.008 0 0 1-.448.106H36a1 1 0 0 1-.707-1.707l.707-.707V17a1 1 0 0 1-1-1h-.467l-.067.097c-.036.25-.08.632-.08.635a.994.994 0 0 1-.294.598l-.092.09V19a1 1 0 0 1-1.895.447l-1-2A1.002 1.002 0 0 1 31 17v-1c0-.265.105-.52.293-.707l.739-.739a.998.998 0 0 1 .435-.725l.037-.025-.516-.071-1.379 1.059A.993.993 0 0 1 30 15h-1a1 1 0 0 1-.707-1.707l.293-.293H27a.996.996 0 0 1-.707-.293l-.714-.713-7.745-.117a1.086 1.086 0 0 1-.127-.01l-6.795-1.026-3.042-.181a.95.95 0 0 1-.229-.041l-1.969-.594-.672.119v3.615c0 .26-.102.51-.283.697l-.288.297c-.026 1.966-.051 2.223-.419 2.438l-.01.801c.047 3.401.481 5.207.651 5.788a.853.853 0 0 1 .031.018l1.437.866c.166.1.299.246.384.42l.733 1.435 1.327.121a.999.999 0 0 1 .863.707l2.479 1.381 1.815.308c.198-.212.488-.332.796-.315l1.516.1c.239.016.465.117.636.285l2.033 1.999a.997.997 0 0 1 .299.713v.049l.25.133H21a1 1 0 0 1 .833.447l1.26 1.9c.057.085.1.178.128.276zM46 12.236v.563l.831-.553-.538-.538-.019-.019zM12 43a1 1 0 0 1-1-1v-.151l-1.044-.575-1.329-.456a.998.998 0 0 1-.637-.67h-.001A1 1 0 0 1 7 41h-.367l-.378.799a1.01 1.01 0 0 1-.482.479l-1.349.627a1.006 1.006 0 0 1-.405.095H3a1 1 0 1 1 0-2h.57l.485-.511-.117-.286L3.4 39.8a1 1 0 0 1-.25-1.327l.367-.594-.061-.04A1 1 0 0 1 4 36c0-.316.149-.619.413-.81l1.415-1.027a.998.998 0 0 1 1.456.314l.297.523H9a1 1 0 0 1 1 .998l.006 2.529.71.332a.946.946 0 0 1 .162.096l1.697 1.228c.034.024.067.05.098.078h.001a.993.993 0 0 1 .326.733V42a1 1 0 0 1-1 1zm-6.5-4.103a.989.989 0 0 1 .127.175A.995.995 0 0 1 6 39a1 1 0 0 1 1-1h1.004l-.002-1H7a1 1 0 0 1-.854-.48l.069.3a.996.996 0 0 1-.111.729c.045.25-.008.509-.147.723l-.271.414a1.02 1.02 0 0 1-.186.211zM19.438 43a.955.955 0 0 1-.141-.01l-.23-.033a1 1 0 0 1-.777-.593l-.1-.23a1.097 1.097 0 0 1-.04-.109l-.093-.309a1 1 0 0 1 .102-.804l.15-.271c.036-.074.082-.143.135-.206.146-.172.405-.362.626-.407l.031-.006c.147-.029.3-.025.444.011l.338.085a.997.997 0 0 1 .499.301l.331.369c.104.117.181.257.222.409l.046.171a.997.997 0 0 1-.264.971l-.153.151a.99.99 0 0 1-.435.252l-.027.008c-.184.161-.42.25-.664.25zm-2.734-2.5a.864.864 0 0 1-.088-.004l-.063-.005-.31.009c-.239 0-.417-.081-.537-.139-.308-.1-.706-.385-.706-1.194a1 1 0 0 1 .464-.844l.152-.097a1.05 1.05 0 0 1 .141-.074l.225-.097a1 1 0 0 1 1.017.135l.366.29a.999.999 0 0 1 .365.95l-.04.237a1.001 1.001 0 0 1-.986.833zm-3.126-1.968c-.092 0-.185-.013-.277-.039l-.415-.085a1 1 0 0 1-.886-.994v-.194c0-.111.019-.221.055-.325l.085-.247a.99.99 0 0 1 1.023-.672l.411.032c.224.018.435.11.6.262l.21.193c.301.277.402.711.256 1.094l-.128.333a1 1 0 0 1-.934.642z"/></svg>